<svg width="50" height="49" viewBox="0 0 50 49" fill="none" xmlns="http://www.w3.org/2000/svg">
<path d="M22.7438 35.6248C22.3807 35.3583 21.8698 35.4361 21.603 35.7994L21.5022 35.9366C21.2357 36.2995 21.3133 36.8097 21.6759 37.0768C21.8215 37.1842 21.9912 37.2361 22.1594 37.2361C22.4095 37.2361 22.6564 37.1214 22.8163 36.9047L22.9186 36.7657C23.1853 36.4024 23.1071 35.8916 22.7438 35.6248Z" fill="#EB791E"/>
<path d="M22.9567 43.3892L20.8576 39.5724L22.8174 36.9032C23.0843 36.54 23.006 36.0291 22.6426 35.7623C22.2793 35.4954 21.7685 35.5737 21.5018 35.9372L19.2335 39.0264C19.0454 39.2825 19.0232 39.6243 19.1762 39.9028L21.5265 44.1758V44.1757C21.6752 44.4458 21.9543 44.5987 22.2424 44.5987C22.3754 44.5986 22.5102 44.566 22.635 44.4975C23.0298 44.2803 23.1739 43.7841 22.9567 43.3892Z" fill="#EB791E"/>
<path d="M29.0398 39.0265L26.7807 35.9498C26.5934 35.6948 26.2759 35.5708 25.9654 35.6323C25.6549 35.6933 25.4078 35.9284 25.331 36.2353C25.2721 36.471 25.3212 36.7205 25.465 36.9163L27.4152 39.5725L25.3305 43.3634C25.2643 43.4838 25.2295 43.6195 25.2295 43.7571C25.2295 44.1296 25.4818 44.4549 25.8426 44.5476C25.9102 44.565 25.9784 44.5734 26.0457 44.5734C26.3379 44.5734 26.6148 44.4158 26.7608 44.1505L29.097 39.9031C29.2502 39.6245 29.2278 39.2826 29.0398 39.0265Z" fill="#EB791E"/>
<path d="M30.3331 26.2007C30.0646 26.0598 29.7401 26.079 29.4904 26.2511C29.0049 26.5856 28.5544 26.9399 28.1514 27.3041C25.955 29.2897 23.8682 29.021 23.7865 29.0093C23.7373 29.0016 23.6872 28.998 23.6377 28.9996C22.7696 29.0219 21.2045 28.2286 19.5488 26.9283C19.2956 26.7294 19.0359 26.5399 18.7766 26.3649C18.5266 26.196 18.2035 26.1789 17.937 26.3206C17.6705 26.4622 17.5039 26.7394 17.5039 27.0413V29.8412C17.5039 30.0888 17.6166 30.3228 17.8097 30.4778C17.8325 30.4962 17.8562 30.5131 17.8808 30.5288L23.668 34.3959C23.6689 34.3965 23.6698 34.3972 23.6707 34.3979L23.686 34.4081C23.8222 34.4982 23.9792 34.5438 24.1368 34.5438C24.2693 34.5438 24.4019 34.5116 24.523 34.4468C24.5486 34.4332 24.5731 34.4182 24.5967 34.4021C24.5994 34.4004 24.6021 34.3986 24.605 34.3967C24.6082 34.3946 24.6114 34.3924 24.6146 34.3903L30.3881 30.5323C30.4113 30.5176 30.4339 30.5017 30.4557 30.4848C30.6538 30.3301 30.7696 30.0928 30.7696 29.8415V26.9233C30.7696 26.6199 30.6016 26.3418 30.3331 26.2007ZM29.1372 29.4046L24.1367 32.7461L19.1362 29.4046V28.6623C20.3538 29.5471 22.1449 30.6324 23.6049 30.6323C23.6079 30.6323 23.6113 30.6323 23.6144 30.6323C24.1046 30.6865 26.6043 30.8339 29.1374 28.6118V29.4046H29.1372Z" fill="#EB791E"/>
<path d="M24.9416 33.5934C24.8877 33.2697 24.6452 33.0098 24.3259 32.9336C24.0065 32.8579 23.6729 32.98 23.4787 33.2445L21.6027 35.7997C21.3359 36.1631 21.4142 36.6739 21.7776 36.9406C21.9231 37.0475 22.0922 37.099 22.26 37.099C22.511 37.099 22.7585 36.9835 22.9186 36.7656L24.7848 34.2239C24.891 34.0852 24.9528 33.9124 24.9528 33.7278C24.9527 33.6829 24.9489 33.6377 24.9416 33.5934Z" fill="#EB791E"/>
<path d="M36.5711 7.28171C36.5549 7.15386 36.1726 4.39456 33.5753 3.30605C33.6507 2.82143 33.6428 2.1986 33.3351 1.59264C32.9216 0.778216 32.1056 0.247494 30.9096 0.0149911C30.8583 0.00499703 30.8063 0 30.7539 0H19.7994C15.3513 0 11.7324 3.61879 11.7324 8.06709V12.3656C11.7324 13.4855 12.1142 14.5776 12.8072 15.4404C13.1507 15.8683 13.5739 16.6155 13.6377 17.7452C13.6626 18.1863 14.0318 18.5271 14.4756 18.5148C14.9172 18.5024 15.2687 18.1407 15.2687 17.699V12.0948C15.8229 9.80285 17.7143 9.35679 18.0395 9.29654H21.5829C21.9997 9.29654 22.4096 9.2329 22.8013 9.10732C23.4751 8.89122 24.544 8.49353 25.3222 8.19795C25.8428 8.00005 26.4192 7.99279 26.9451 8.17759L30.7385 9.50925C32.6349 10.2088 32.9734 11.8737 33.0153 12.1352V18.8611C33.0153 19.2883 33.3447 19.6428 33.7706 19.6745C33.7914 19.676 33.8117 19.6769 33.8321 19.6769C34.2324 19.6768 34.5781 19.3835 34.6387 18.9815C34.6419 18.9605 34.9677 16.8554 36.0186 15.17C36.3843 14.5833 36.5776 13.9144 36.5776 13.2355V7.38476C36.5776 7.35034 36.5755 7.31593 36.5711 7.28171ZM34.9452 13.2351C34.9452 13.5997 34.8424 13.9614 34.6476 14.283V12.0794C34.6476 12.0499 34.646 12.0206 34.6428 11.9913C34.6299 11.8727 34.2927 9.07573 31.2959 7.97488C31.2922 7.97356 31.2885 7.97224 31.2848 7.97092L27.4857 6.63718C27.0574 6.4868 26.6092 6.41175 26.1614 6.41175C25.6798 6.41175 25.1985 6.49859 24.7424 6.67207C23.6529 7.08597 22.8091 7.3906 22.3027 7.55296C22.0724 7.62678 21.8302 7.66431 21.5828 7.66431H17.9735C17.9385 7.66431 17.9035 7.66657 17.8687 7.671C17.7306 7.68892 14.4752 8.15185 13.656 11.8237C13.643 11.8821 13.6364 11.9417 13.6364 12.0014V13.6812C13.4587 13.2705 13.3646 12.8219 13.3646 12.3657V8.06728C13.3646 4.5192 16.2512 1.63252 19.7992 1.63252H30.6715C31.1216 1.72841 31.6687 1.92518 31.8762 2.3255C32.1303 2.8155 31.8408 3.49019 31.8406 3.49075C31.7362 3.71279 31.7374 3.9699 31.8435 4.191C31.9496 4.41209 32.1497 4.57369 32.3882 4.63111C34.4661 5.13129 34.8899 7.12416 34.9451 7.44651V13.2351H34.9452Z" fill="#EB791E"/>
<path d="M34.6422 11.9911C34.6294 11.8726 34.2921 9.07561 31.2953 7.97475C31.2917 7.97343 31.288 7.97211 31.2843 7.97079L27.4851 6.63706C26.5961 6.32498 25.6219 6.33743 24.7418 6.67176C23.6522 7.08566 22.8085 7.39029 22.3021 7.55274C22.0718 7.62657 21.8295 7.664 21.5821 7.664H17.9729C17.9379 7.664 17.9028 7.66626 17.868 7.67069C17.7299 7.6886 14.4746 8.15154 13.6554 11.8234C13.6423 11.8818 13.6357 11.9414 13.6357 12.0011V19.0173C13.6357 19.0234 13.6358 19.0294 13.6359 19.0354C13.6413 19.2792 13.8137 25.0349 17.7906 27.6672L17.8112 27.6817C17.8282 27.6938 17.8453 27.7058 17.8631 27.7178C18.0899 27.8709 18.3176 28.0372 18.5403 28.212C19.6988 29.1217 21.8822 30.6322 23.6045 30.6322C23.6077 30.6322 23.6108 30.6322 23.6141 30.6322C23.7076 30.6425 23.8746 30.6563 24.101 30.6563C25.0771 30.6563 27.1597 30.4005 29.2456 28.5148C29.5957 28.1985 29.9893 27.889 30.416 27.5951L30.477 27.5524C30.4969 27.5383 30.5168 27.5242 30.5374 27.5104C31.864 26.6194 34.1615 24.3204 34.6438 18.9336C34.646 18.9095 34.6471 18.8851 34.6471 18.8607V12.0793C34.647 12.0499 34.6453 12.0206 34.6422 11.9911ZM33.0146 18.8239C32.5699 23.6853 30.4985 25.5699 29.6272 26.1552C29.5962 26.176 29.5657 26.1975 29.5351 26.219L29.4899 26.2509C29.0044 26.5853 28.5539 26.9396 28.151 27.3038C25.9627 29.2821 23.8828 29.0226 23.7807 29.0083C23.7333 29.0012 23.6852 28.9982 23.6372 28.9995C22.7692 29.0218 21.2041 28.2286 19.5484 26.9282C19.2951 26.7293 19.0355 26.5397 18.7766 26.365L18.7565 26.3509C18.7369 26.3369 18.7173 26.3231 18.6943 26.3078C15.4851 24.1837 15.2751 19.213 15.2681 19.0055V12.0946C15.8243 9.79424 17.7274 9.35327 18.0376 9.29633H21.5822C21.9991 9.29633 22.4089 9.23269 22.8007 9.1071C23.4744 8.891 24.5434 8.49331 25.3215 8.19773C25.8422 7.99983 26.4186 7.99257 26.9444 8.17737L30.7378 9.50903C32.6343 10.2086 32.9727 11.8735 33.0147 12.135V18.8239H33.0146Z" fill="#EB791E"/>
<path d="M24.8666 33.3629C24.7394 33.1085 24.489 32.9387 24.2056 32.9146C23.9228 32.8912 23.6469 33.0156 23.4786 33.2449L21.5236 35.9076C21.257 36.2708 21.3349 36.7813 21.6978 37.0482C21.8434 37.1553 22.0128 37.207 22.1807 37.207C22.4311 37.207 22.6783 37.0921 22.8383 36.875L24.7935 34.222C24.8969 34.0817 24.9528 33.9024 24.9528 33.7282C24.9528 33.6016 24.9231 33.4763 24.8666 33.3629Z" fill="#EB791E"/>
<path d="M24.9187 46.5038C24.6121 46.1832 24.1055 46.1661 23.7781 46.4657L23.5916 46.6363C23.3122 46.8917 23.2452 47.3058 23.4298 47.6364L23.4355 47.6466C23.5602 47.87 23.7825 48.022 24.0358 48.0572C24.0734 48.0623 24.1109 48.0649 24.1482 48.0649C24.3631 48.0649 24.5712 47.9799 24.7253 47.8258L24.9061 47.6449C25.2197 47.3312 25.2254 46.8243 24.9187 46.5038Z" fill="#EB791E"/>
<path d="M24.6815 46.6366L24.4949 46.4659C24.1676 46.1665 23.6609 46.1836 23.3543 46.5041C23.0476 46.8249 23.0532 47.3318 23.367 47.6454L23.548 47.8264C23.7022 47.9805 23.9102 48.0654 24.1251 48.0654C24.1634 48.0654 24.202 48.0627 24.2406 48.0572C24.4947 48.0209 24.7171 47.8669 24.8407 47.6418L24.8464 47.6315C25.0273 47.3015 24.9592 46.8905 24.6815 46.6366Z" fill="#EB791E"/>
<path d="M24.6949 46.6495L24.6939 46.6486C24.5679 46.5307 24.4048 46.453 24.2252 46.4333C23.9847 46.4071 23.7504 46.4886 23.58 46.6472L23.5776 46.6495C23.4126 46.8 23.3165 47.0116 23.3117 47.2349C23.3069 47.4584 23.3938 47.6738 23.5521 47.8313L23.5607 47.8398C23.72 47.9981 23.928 48.0772 24.1362 48.0772C24.3452 48.0772 24.554 47.9975 24.7132 47.8383L24.7218 47.8297C24.8795 47.672 24.9658 47.4568 24.9606 47.2339C24.9557 47.0109 24.8597 46.7998 24.6949 46.6495Z" fill="#EB791E"/>
<path d="M24.401 32.938C24.063 32.8297 23.6921 32.9552 23.4863 33.2447C23.256 33.5688 23.294 34.0106 23.5745 34.2924C23.7323 34.4509 23.9418 34.5322 24.1529 34.5322C24.3169 34.5322 24.4817 34.4832 24.6239 34.3831C24.8411 34.2302 24.9704 33.9813 24.9704 33.7156V33.7137C24.9704 33.3585 24.7394 33.0459 24.401 32.938Z" fill="#EB791E"/>
<path d="M24.7997 33.238L24.7927 33.2286C24.5833 32.9451 24.2156 32.8284 23.881 32.9386C23.5464 33.0489 23.3203 33.3615 23.3203 33.7137V33.7277C23.3203 34.0282 23.489 34.3021 23.7537 34.4443C23.8737 34.5086 24.006 34.5404 24.1382 34.5404C24.2977 34.5404 24.4569 34.4942 24.5938 34.4035C24.7804 34.28 24.9081 34.0852 24.9471 33.8649C24.986 33.6446 24.9327 33.4179 24.7997 33.238Z" fill="#EB791E"/>
<path d="M33.8456 30.6738C33.7611 30.4503 33.5828 30.2751 33.3578 30.1946L30.2285 29.0728C30.2031 29.0637 30.1768 29.0556 30.1506 29.0492C29.9272 28.9933 29.6906 29.0343 29.4992 29.1624L23.7009 33.0368C23.6994 33.0379 23.6977 33.0389 23.6961 33.04L24.1514 33.717L23.6859 33.0469C23.5158 33.1594 23.394 33.3319 23.3446 33.5297C23.3175 33.6383 23.313 33.7517 23.3314 33.8621C23.3525 33.9883 23.4028 34.1078 23.4786 34.211L27.7237 39.9926C27.878 40.2029 28.1227 40.3258 28.3814 40.3258C28.3992 40.3258 28.417 40.3251 28.4348 40.3239C28.7128 40.3056 28.9624 40.147 29.0967 39.9028L33.7974 31.3561C33.9127 31.1466 33.9303 30.8972 33.8456 30.6738ZM28.2826 37.9958L25.299 33.9322L30.0643 30.7479L31.906 31.4082L28.2826 37.9958Z" fill="#EB791E"/>
<path d="M24.9411 33.5871C24.9028 33.368 24.7767 33.174 24.5919 33.05L18.7743 29.1626C18.5892 29.0387 18.3609 28.9963 18.1434 29.0446C18.11 29.0519 18.0772 29.0616 18.045 29.0731L14.9157 30.1949C14.6907 30.2755 14.5124 30.4506 14.4279 30.6741C14.3433 30.8976 14.3608 31.1469 14.476 31.3564L19.1767 39.903C19.311 40.1472 19.5606 40.3059 19.8386 40.3242C19.8563 40.3253 19.8741 40.3259 19.8919 40.3259C20.1506 40.3259 20.3952 40.203 20.5498 39.9926L22.8181 36.9034C22.8198 36.9011 22.8216 36.8985 22.8234 36.896L24.795 34.2107C24.9266 34.0313 24.9794 33.8062 24.9411 33.5871ZM21.5024 35.937C21.5004 35.9396 21.4986 35.9423 21.4966 35.9449L19.9906 37.9961L16.3673 31.4084L18.209 30.7482L22.9742 33.9324L21.5024 35.937Z" fill="#EB791E"/>
<path d="M48.2328 44.6071L47.1799 38.2493C46.8482 36.2457 45.4557 34.5717 43.5459 33.881L33.36 30.1958C33.046 30.0823 32.695 30.1713 32.473 30.4204C32.2511 30.6696 32.2031 31.0288 32.3521 31.3276L34.4787 35.5924L32.3919 35.6245C32.1086 35.629 31.8477 35.7798 31.703 36.0235C31.5582 36.2671 31.5501 36.5682 31.6815 36.8193L32.5374 38.4535L23.7782 46.4664C23.7692 46.4746 23.7605 46.4829 23.7519 46.4915L23.5711 46.6723C23.3149 46.9286 23.2582 47.3231 23.4322 47.641L23.4386 47.6526C23.5818 47.9142 23.8564 48.077 24.1547 48.077H45.2903C46.1684 48.077 46.9975 47.693 47.5652 47.0234C48.133 46.3538 48.3763 45.473 48.2328 44.6071ZM46.3204 45.9677C46.0632 46.2709 45.6878 46.4448 45.2904 46.4448H26.22L34.1032 39.2336C34.3766 38.9837 34.4473 38.581 34.2753 38.2528L33.7428 37.2361L35.8007 37.2045C36.0812 37.2002 36.3396 37.0521 36.4854 36.8125C36.6311 36.5728 36.6437 36.2752 36.5185 36.0241L34.7237 32.4248L42.991 35.4157C44.3463 35.906 45.3345 37.094 45.57 38.5158L46.6228 44.8737C46.6228 44.8738 46.6228 44.8738 46.6228 44.8738C46.6877 45.2659 46.5776 45.6645 46.3204 45.9677Z" fill="#EB791E"/>
<path d="M24.7022 46.6557L24.6927 46.6471C24.3696 46.3546 23.8735 46.3676 23.5662 46.6767L23.5577 46.6853C23.3253 46.9191 23.2563 47.2698 23.3829 47.5742C23.5095 47.8786 23.8069 48.0769 24.1365 48.0769H24.1544C24.4918 48.0769 24.7946 47.8691 24.9158 47.5543C25.0374 47.2393 24.9524 46.8821 24.7022 46.6557Z" fill="#EB791E"/>
<path d="M24.6774 46.632C24.4922 46.4652 24.2409 46.3921 23.9948 46.4341C23.749 46.4757 23.5357 46.6276 23.4158 46.8461L23.4102 46.8564C23.2381 47.1701 23.2904 47.5593 23.5392 47.8165L23.5422 47.8195C23.7021 47.9848 23.9151 48.0681 24.1288 48.0681C24.3254 48.0681 24.5225 47.9974 24.6786 47.8548L24.6872 47.847C24.7613 47.7795 24.8224 47.6986 24.8673 47.6089C25.0316 47.2805 24.9504 46.8775 24.6774 46.632Z" fill="#EB791E"/>
<path d="M24.7119 46.6819L24.7085 46.6785C24.7064 46.6763 24.7041 46.674 24.702 46.672L24.521 46.4911C24.5125 46.4825 24.5037 46.4741 24.4949 46.4661L15.7357 38.4533L16.5917 36.819C16.7232 36.5681 16.715 36.2668 16.5703 36.0232C16.4254 35.7797 16.1646 35.6287 15.8813 35.6243L13.7944 35.5921L15.921 31.3273C16.07 31.0286 16.0219 30.6693 15.8001 30.4201C15.5782 30.1709 15.2267 30.0818 14.913 30.1955L4.7273 33.8807C2.81749 34.5713 1.42493 36.2453 1.09314 38.249L0.040278 44.6069C-0.103127 45.4731 0.140313 46.3537 0.708088 47.0233C1.27596 47.6928 2.10518 48.0768 2.98296 48.0768H24.1366C24.4672 48.0768 24.765 47.8774 24.891 47.5719C25.017 47.2664 24.9463 46.9149 24.7119 46.6819ZM2.98306 46.4445C2.58556 46.4445 2.21012 46.2707 1.9531 45.9675C1.69609 45.6643 1.58596 45.2656 1.65083 44.8734L2.70369 38.5156C2.93912 37.0935 3.92731 35.9057 5.28263 35.4154L13.5499 32.4245L11.7551 36.0237C11.6299 36.2747 11.6423 36.5723 11.7882 36.8121C11.9339 37.0517 12.1925 37.1998 12.473 37.204L14.5308 37.2358L13.9983 38.2524C13.8264 38.5805 13.8971 38.9833 14.1704 39.2333L22.0535 46.4445H2.98306Z" fill="#EB791E"/>
<path d="M26.9148 36.6308C26.9737 36.3951 26.9246 36.1456 26.7808 35.9497L24.7946 33.2448C24.5859 32.9605 24.2178 32.8474 23.8827 32.9574C23.7018 33.0167 23.5527 33.1364 23.4535 33.2894L21.5036 35.9351C21.4757 35.9728 21.4509 36.0134 21.4299 36.0554C21.2963 36.3227 21.3194 36.6416 21.4901 36.8868L22.3204 38.0792L21.4358 43.6549C21.4075 43.8339 21.4395 44.0172 21.5268 44.1761L23.4217 47.6213C23.5651 47.8822 23.8393 48.0441 24.1369 48.0441C24.4345 48.0441 24.7086 47.8822 24.852 47.6213L26.7611 44.1505C26.8273 44.03 26.862 43.8947 26.862 43.7572V43.7568C26.862 43.714 26.8586 43.6712 26.852 43.6288L25.9714 38.0793L26.7928 36.9C26.8492 36.8184 26.8908 36.727 26.9148 36.6308ZM24.1369 45.5345L23.0917 43.6344L23.984 38.0105C24.0171 37.8021 23.9682 37.5892 23.8477 37.4162L23.1638 36.434L24.1392 35.1104L25.1198 36.4458L24.4441 37.4162C24.3236 37.5891 24.2747 37.8021 24.3077 38.0105L25.196 43.6087L24.1369 45.5345Z" fill="#EB791E"/>
<path d="M23.7438 35.6248C23.3807 35.3583 22.8698 35.4361 22.603 35.7994L22.5022 35.9366C22.2357 36.2995 22.3133 36.8097 22.6759 37.0768C22.8215 37.1842 22.9912 37.2361 23.1594 37.2361C23.4095 37.2361 23.6564 37.1214 23.8163 36.9047L23.9186 36.7657C24.1853 36.4024 24.1071 35.8916 23.7438 35.6248Z" fill="#EB791E"/>
<path d="M23.9567 43.3892L21.8576 39.5724L23.8174 36.9032C24.0843 36.54 24.006 36.0291 23.6426 35.7623C23.2793 35.4954 22.7685 35.5737 22.5018 35.9372L20.2335 39.0264C20.0454 39.2825 20.0232 39.6243 20.1762 39.9028L22.5265 44.1758V44.1757C22.6752 44.4458 22.9543 44.5987 23.2424 44.5987C23.3754 44.5986 23.5102 44.566 23.635 44.4975C24.0298 44.2803 24.1739 43.7841 23.9567 43.3892Z" fill="#EB791E"/>
<path d="M30.0398 39.0265L27.7807 35.9498C27.5934 35.6948 27.2759 35.5708 26.9654 35.6323C26.6549 35.6933 26.4078 35.9284 26.331 36.2353C26.2721 36.471 26.3212 36.7205 26.465 36.9163L28.4152 39.5725L26.3305 43.3634C26.2643 43.4838 26.2295 43.6195 26.2295 43.7571C26.2295 44.1296 26.4818 44.4549 26.8426 44.5476C26.9102 44.565 26.9784 44.5734 27.0457 44.5734C27.3379 44.5734 27.6148 44.4158 27.7608 44.1505L30.097 39.9031C30.2502 39.6245 30.2278 39.2826 30.0398 39.0265Z" fill="#EB791E"/>
<path d="M31.3331 26.2007C31.0646 26.0598 30.7401 26.079 30.4904 26.2511C30.0049 26.5856 29.5544 26.9399 29.1514 27.3041C26.955 29.2897 24.8682 29.021 24.7865 29.0093C24.7373 29.0016 24.6872 28.998 24.6377 28.9996C23.7696 29.0219 22.2045 28.2286 20.5488 26.9283C20.2956 26.7294 20.0359 26.5399 19.7766 26.3649C19.5266 26.196 19.2035 26.1789 18.937 26.3206C18.6705 26.4622 18.5039 26.7394 18.5039 27.0413V29.8412C18.5039 30.0888 18.6166 30.3228 18.8097 30.4778C18.8325 30.4962 18.8562 30.5131 18.8808 30.5288L24.668 34.3959C24.6689 34.3965 24.6698 34.3972 24.6707 34.3979L24.686 34.4081C24.8222 34.4982 24.9792 34.5438 25.1368 34.5438C25.2693 34.5438 25.4019 34.5116 25.523 34.4468C25.5486 34.4332 25.5731 34.4182 25.5967 34.4021C25.5994 34.4004 25.6021 34.3986 25.605 34.3967C25.6082 34.3946 25.6114 34.3924 25.6146 34.3903L31.3881 30.5323C31.4113 30.5176 31.4339 30.5017 31.4557 30.4848C31.6538 30.3301 31.7696 30.0928 31.7696 29.8415V26.9233C31.7696 26.6199 31.6016 26.3418 31.3331 26.2007ZM30.1372 29.4046L25.1367 32.7461L20.1362 29.4046V28.6623C21.3538 29.5471 23.1449 30.6324 24.6049 30.6323C24.6079 30.6323 24.6113 30.6323 24.6144 30.6323C25.1046 30.6865 27.6043 30.8339 30.1374 28.6118V29.4046H30.1372Z" fill="#EB791E"/>
<path d="M25.9416 33.5934C25.8877 33.2697 25.6452 33.0098 25.3259 32.9336C25.0065 32.8579 24.6729 32.98 24.4787 33.2445L22.6027 35.7997C22.3359 36.1631 22.4142 36.6739 22.7776 36.9406C22.9231 37.0475 23.0922 37.099 23.26 37.099C23.511 37.099 23.7585 36.9835 23.9186 36.7656L25.7848 34.2239C25.891 34.0852 25.9528 33.9124 25.9528 33.7278C25.9527 33.6829 25.9489 33.6377 25.9416 33.5934Z" fill="#EB791E"/>
<path d="M37.5711 7.28171C37.5549 7.15386 37.1726 4.39456 34.5753 3.30605C34.6507 2.82143 34.6428 2.1986 34.3351 1.59264C33.9216 0.778216 33.1056 0.247494 31.9096 0.0149911C31.8583 0.00499703 31.8063 0 31.7539 0H20.7994C16.3513 0 12.7324 3.61879 12.7324 8.06709V12.3656C12.7324 13.4855 13.1142 14.5776 13.8072 15.4404C14.1507 15.8683 14.5739 16.6155 14.6377 17.7452C14.6626 18.1863 15.0318 18.5271 15.4756 18.5148C15.9172 18.5024 16.2687 18.1407 16.2687 17.699V12.0948C16.8229 9.80285 18.7143 9.35679 19.0395 9.29654H22.5829C22.9997 9.29654 23.4096 9.2329 23.8013 9.10732C24.4751 8.89122 25.544 8.49353 26.3222 8.19795C26.8428 8.00005 27.4192 7.99279 27.9451 8.17759L31.7385 9.50925C33.6349 10.2088 33.9734 11.8737 34.0153 12.1352V18.8611C34.0153 19.2883 34.3447 19.6428 34.7706 19.6745C34.7914 19.676 34.8117 19.6769 34.8321 19.6769C35.2324 19.6768 35.5781 19.3835 35.6387 18.9815C35.6419 18.9605 35.9677 16.8554 37.0186 15.17C37.3843 14.5833 37.5776 13.9144 37.5776 13.2355V7.38476C37.5776 7.35034 37.5755 7.31593 37.5711 7.28171ZM35.9452 13.2351C35.9452 13.5997 35.8424 13.9614 35.6476 14.283V12.0794C35.6476 12.0499 35.646 12.0206 35.6428 11.9913C35.6299 11.8727 35.2927 9.07573 32.2959 7.97488C32.2922 7.97356 32.2885 7.97224 32.2848 7.97092L28.4857 6.63718C28.0574 6.4868 27.6092 6.41175 27.1614 6.41175C26.6798 6.41175 26.1985 6.49859 25.7424 6.67207C24.6529 7.08597 23.8091 7.3906 23.3027 7.55296C23.0724 7.62678 22.8302 7.66431 22.5828 7.66431H18.9735C18.9385 7.66431 18.9035 7.66657 18.8687 7.671C18.7306 7.68892 15.4752 8.15185 14.656 11.8237C14.643 11.8821 14.6364 11.9417 14.6364 12.0014V13.6812C14.4587 13.2705 14.3646 12.8219 14.3646 12.3657V8.06728C14.3646 4.5192 17.2512 1.63252 20.7992 1.63252H31.6715C32.1216 1.72841 32.6687 1.92518 32.8762 2.3255C33.1303 2.8155 32.8408 3.49019 32.8406 3.49075C32.7362 3.71279 32.7374 3.9699 32.8435 4.191C32.9496 4.41209 33.1497 4.57369 33.3882 4.63111C35.4661 5.13129 35.8899 7.12416 35.9451 7.44651V13.2351H35.9452Z" fill="#EB791E"/>
<path d="M35.6422 11.9911C35.6294 11.8726 35.2921 9.07561 32.2953 7.97475C32.2917 7.97343 32.288 7.97211 32.2843 7.97079L28.4851 6.63706C27.5961 6.32498 26.6219 6.33743 25.7418 6.67176C24.6522 7.08566 23.8085 7.39029 23.3021 7.55274C23.0718 7.62657 22.8295 7.664 22.5821 7.664H18.9729C18.9379 7.664 18.9028 7.66626 18.868 7.67069C18.7299 7.6886 15.4746 8.15154 14.6554 11.8234C14.6423 11.8818 14.6357 11.9414 14.6357 12.0011V19.0173C14.6357 19.0234 14.6358 19.0294 14.6359 19.0354C14.6413 19.2792 14.8137 25.0349 18.7906 27.6672L18.8112 27.6817C18.8282 27.6938 18.8453 27.7058 18.8631 27.7178C19.0899 27.8709 19.3176 28.0372 19.5403 28.212C20.6988 29.1217 22.8822 30.6322 24.6045 30.6322C24.6077 30.6322 24.6108 30.6322 24.6141 30.6322C24.7076 30.6425 24.8746 30.6563 25.101 30.6563C26.0771 30.6563 28.1597 30.4005 30.2456 28.5148C30.5957 28.1985 30.9893 27.889 31.416 27.5951L31.477 27.5524C31.4969 27.5383 31.5168 27.5242 31.5374 27.5104C32.864 26.6194 35.1615 24.3204 35.6438 18.9336C35.646 18.9095 35.6471 18.8851 35.6471 18.8607V12.0793C35.647 12.0499 35.6453 12.0206 35.6422 11.9911ZM34.0146 18.8239C33.5699 23.6853 31.4985 25.5699 30.6272 26.1552C30.5962 26.176 30.5657 26.1975 30.5351 26.219L30.4899 26.2509C30.0044 26.5853 29.5539 26.9396 29.151 27.3038C26.9627 29.2821 24.8828 29.0226 24.7807 29.0083C24.7333 29.0012 24.6852 28.9982 24.6372 28.9995C23.7692 29.0218 22.2041 28.2286 20.5484 26.9282C20.2951 26.7293 20.0355 26.5397 19.7766 26.365L19.7565 26.3509C19.7369 26.3369 19.7173 26.3231 19.6943 26.3078C16.4851 24.1837 16.2751 19.213 16.2681 19.0055V12.0946C16.8243 9.79424 18.7274 9.35327 19.0376 9.29633H22.5822C22.9991 9.29633 23.4089 9.23269 23.8007 9.1071C24.4744 8.891 25.5434 8.49331 26.3215 8.19773C26.8422 7.99983 27.4186 7.99257 27.9444 8.17737L31.7378 9.50903C33.6343 10.2086 33.9727 11.8735 34.0147 12.135V18.8239H34.0146Z" fill="#EB791E"/>
<path d="M25.8666 33.3629C25.7394 33.1085 25.489 32.9387 25.2056 32.9146C24.9228 32.8912 24.6469 33.0156 24.4786 33.2449L22.5236 35.9076C22.257 36.2708 22.3349 36.7813 22.6978 37.0482C22.8434 37.1553 23.0128 37.207 23.1807 37.207C23.4311 37.207 23.6783 37.0921 23.8383 36.875L25.7935 34.222C25.8969 34.0817 25.9528 33.9024 25.9528 33.7282C25.9528 33.6016 25.9231 33.4763 25.8666 33.3629Z" fill="#EB791E"/>
<path d="M25.9187 46.5038C25.6121 46.1832 25.1055 46.1661 24.7781 46.4657L24.5916 46.6363C24.3122 46.8917 24.2452 47.3058 24.4298 47.6364L24.4355 47.6466C24.5602 47.87 24.7825 48.022 25.0358 48.0572C25.0734 48.0623 25.1109 48.0649 25.1482 48.0649C25.3631 48.0649 25.5712 47.9799 25.7253 47.8258L25.9061 47.6449C26.2197 47.3312 26.2254 46.8243 25.9187 46.5038Z" fill="#EB791E"/>
<path d="M25.6815 46.6366L25.4949 46.4659C25.1676 46.1665 24.6609 46.1836 24.3543 46.5041C24.0476 46.8249 24.0532 47.3318 24.367 47.6454L24.548 47.8264C24.7022 47.9805 24.9102 48.0654 25.1251 48.0654C25.1634 48.0654 25.202 48.0627 25.2406 48.0572C25.4947 48.0209 25.7171 47.8669 25.8407 47.6418L25.8464 47.6315C26.0273 47.3015 25.9592 46.8905 25.6815 46.6366Z" fill="#EB791E"/>
<path d="M25.6949 46.6495L25.6939 46.6486C25.5679 46.5307 25.4048 46.453 25.2252 46.4333C24.9847 46.4071 24.7504 46.4886 24.58 46.6472L24.5776 46.6495C24.4126 46.8 24.3165 47.0116 24.3117 47.2349C24.3069 47.4584 24.3938 47.6738 24.5521 47.8313L24.5607 47.8398C24.72 47.9981 24.928 48.0772 25.1362 48.0772C25.3452 48.0772 25.554 47.9975 25.7132 47.8383L25.7218 47.8297C25.8795 47.672 25.9658 47.4568 25.9606 47.2339C25.9557 47.0109 25.8597 46.7998 25.6949 46.6495Z" fill="#EB791E"/>
<path d="M25.401 32.938C25.063 32.8297 24.6921 32.9552 24.4863 33.2447C24.256 33.5688 24.294 34.0106 24.5745 34.2924C24.7323 34.4509 24.9418 34.5322 25.1529 34.5322C25.3169 34.5322 25.4817 34.4832 25.6239 34.3831C25.8411 34.2302 25.9704 33.9813 25.9704 33.7156V33.7137C25.9704 33.3585 25.7394 33.0459 25.401 32.938Z" fill="#EB791E"/>
<path d="M25.7997 33.238L25.7927 33.2286C25.5833 32.9451 25.2156 32.8284 24.881 32.9386C24.5464 33.0489 24.3203 33.3615 24.3203 33.7137V33.7277C24.3203 34.0282 24.489 34.3021 24.7537 34.4443C24.8737 34.5086 25.006 34.5404 25.1382 34.5404C25.2977 34.5404 25.4569 34.4942 25.5938 34.4035C25.7804 34.28 25.9081 34.0852 25.9471 33.8649C25.986 33.6446 25.9327 33.4179 25.7997 33.238Z" fill="#EB791E"/>
<path d="M34.8456 30.6738C34.7611 30.4503 34.5828 30.2751 34.3578 30.1946L31.2285 29.0728C31.2031 29.0637 31.1768 29.0556 31.1506 29.0492C30.9272 28.9933 30.6906 29.0343 30.4992 29.1624L24.7009 33.0368C24.6994 33.0379 24.6977 33.0389 24.6961 33.04L25.1514 33.717L24.6859 33.0469C24.5158 33.1594 24.394 33.3319 24.3446 33.5297C24.3175 33.6383 24.313 33.7517 24.3314 33.8621C24.3525 33.9883 24.4028 34.1078 24.4786 34.211L28.7237 39.9926C28.878 40.2029 29.1227 40.3258 29.3814 40.3258C29.3992 40.3258 29.417 40.3251 29.4348 40.3239C29.7128 40.3056 29.9624 40.147 30.0967 39.9028L34.7974 31.3561C34.9127 31.1466 34.9303 30.8972 34.8456 30.6738ZM29.2826 37.9958L26.299 33.9322L31.0643 30.7479L32.906 31.4082L29.2826 37.9958Z" fill="#EB791E"/>
<path d="M25.9411 33.5871C25.9028 33.368 25.7767 33.174 25.5919 33.05L19.7743 29.1626C19.5892 29.0387 19.3609 28.9963 19.1434 29.0446C19.11 29.0519 19.0772 29.0616 19.045 29.0731L15.9157 30.1949C15.6907 30.2755 15.5124 30.4506 15.4279 30.6741C15.3433 30.8976 15.3608 31.1469 15.476 31.3564L20.1767 39.903C20.311 40.1472 20.5606 40.3059 20.8386 40.3242C20.8563 40.3253 20.8741 40.3259 20.8919 40.3259C21.1506 40.3259 21.3952 40.203 21.5498 39.9926L23.8181 36.9034C23.8198 36.9011 23.8216 36.8985 23.8234 36.896L25.795 34.2107C25.9266 34.0313 25.9794 33.8062 25.9411 33.5871ZM22.5024 35.937C22.5004 35.9396 22.4986 35.9423 22.4966 35.9449L20.9906 37.9961L17.3673 31.4084L19.209 30.7482L23.9742 33.9324L22.5024 35.937Z" fill="#EB791E"/>
<path d="M49.2328 44.6071L48.1799 38.2493C47.8482 36.2457 46.4557 34.5717 44.5459 33.881L34.36 30.1958C34.046 30.0823 33.695 30.1713 33.473 30.4204C33.2511 30.6696 33.2031 31.0288 33.3521 31.3276L35.4787 35.5924L33.3919 35.6245C33.1086 35.629 32.8477 35.7798 32.703 36.0235C32.5582 36.2671 32.5501 36.5682 32.6815 36.8193L33.5374 38.4535L24.7782 46.4664C24.7692 46.4746 24.7605 46.4829 24.7519 46.4915L24.5711 46.6723C24.3149 46.9286 24.2582 47.3231 24.4322 47.641L24.4386 47.6526C24.5818 47.9142 24.8564 48.077 25.1547 48.077H46.2903C47.1684 48.077 47.9975 47.693 48.5652 47.0234C49.133 46.3538 49.3763 45.473 49.2328 44.6071ZM47.3204 45.9677C47.0632 46.2709 46.6878 46.4448 46.2904 46.4448H27.22L35.1032 39.2336C35.3766 38.9837 35.4473 38.581 35.2753 38.2528L34.7428 37.2361L36.8007 37.2045C37.0812 37.2002 37.3396 37.0521 37.4854 36.8125C37.6311 36.5728 37.6437 36.2752 37.5185 36.0241L35.7237 32.4248L43.991 35.4157C45.3463 35.906 46.3345 37.094 46.57 38.5158L47.6228 44.8737C47.6228 44.8738 47.6228 44.8738 47.6228 44.8738C47.6877 45.2659 47.5776 45.6645 47.3204 45.9677Z" fill="#EB791E"/>
<path d="M25.7022 46.6557L25.6927 46.6471C25.3696 46.3546 24.8735 46.3676 24.5662 46.6767L24.5577 46.6853C24.3253 46.9191 24.2563 47.2698 24.3829 47.5742C24.5095 47.8786 24.8069 48.0769 25.1365 48.0769H25.1544C25.4918 48.0769 25.7946 47.8691 25.9158 47.5543C26.0374 47.2393 25.9524 46.8821 25.7022 46.6557Z" fill="#EB791E"/>
<path d="M25.6774 46.632C25.4922 46.4652 25.2409 46.3921 24.9948 46.4341C24.749 46.4757 24.5357 46.6276 24.4158 46.8461L24.4102 46.8564C24.2381 47.1701 24.2904 47.5593 24.5392 47.8165L24.5422 47.8195C24.7021 47.9848 24.9151 48.0681 25.1288 48.0681C25.3254 48.0681 25.5225 47.9974 25.6786 47.8548L25.6872 47.847C25.7613 47.7795 25.8224 47.6986 25.8673 47.6089C26.0316 47.2805 25.9504 46.8775 25.6774 46.632Z" fill="#EB791E"/>
<path d="M25.7119 46.6819L25.7085 46.6785C25.7064 46.6763 25.7041 46.674 25.702 46.672L25.521 46.4911C25.5125 46.4825 25.5037 46.4741 25.4949 46.4661L16.7357 38.4533L17.5917 36.819C17.7232 36.5681 17.715 36.2668 17.5703 36.0232C17.4254 35.7797 17.1646 35.6287 16.8813 35.6243L14.7944 35.5921L16.921 31.3273C17.07 31.0286 17.0219 30.6693 16.8001 30.4201C16.5782 30.1709 16.2267 30.0818 15.913 30.1955L5.7273 33.8807C3.81749 34.5713 2.42493 36.2453 2.09314 38.249L1.04028 44.6069C0.896873 45.4731 1.14031 46.3537 1.70809 47.0233C2.27596 47.6928 3.10518 48.0768 3.98296 48.0768H25.1366C25.4672 48.0768 25.765 47.8774 25.891 47.5719C26.017 47.2664 25.9463 46.9149 25.7119 46.6819ZM3.98306 46.4445C3.58556 46.4445 3.21012 46.2707 2.9531 45.9675C2.69609 45.6643 2.58596 45.2656 2.65083 44.8734L3.70369 38.5156C3.93912 37.0935 4.92731 35.9057 6.28263 35.4154L14.5499 32.4245L12.7551 36.0237C12.6299 36.2747 12.6423 36.5723 12.7882 36.8121C12.9339 37.0517 13.1925 37.1998 13.473 37.204L15.5308 37.2358L14.9983 38.2524C14.8264 38.5805 14.8971 38.9833 15.1704 39.2333L23.0535 46.4445H3.98306Z" fill="#EB791E"/>
<path d="M27.9148 36.6308C27.9737 36.3951 27.9246 36.1456 27.7808 35.9497L25.7946 33.2448C25.5859 32.9605 25.2178 32.8474 24.8827 32.9574C24.7018 33.0167 24.5527 33.1364 24.4535 33.2894L22.5036 35.9351C22.4757 35.9728 22.4509 36.0134 22.4299 36.0554C22.2963 36.3227 22.3194 36.6416 22.4901 36.8868L23.3204 38.0792L22.4358 43.6549C22.4075 43.8339 22.4395 44.0172 22.5268 44.1761L24.4217 47.6213C24.5651 47.8822 24.8393 48.0441 25.1369 48.0441C25.4345 48.0441 25.7086 47.8822 25.852 47.6213L27.7611 44.1505C27.8273 44.03 27.862 43.8947 27.862 43.7572V43.7568C27.862 43.714 27.8586 43.6712 27.852 43.6288L26.9714 38.0793L27.7928 36.9C27.8492 36.8184 27.8908 36.727 27.9148 36.6308ZM25.1369 45.5345L24.0917 43.6344L24.984 38.0105C25.0171 37.8021 24.9682 37.5892 24.8477 37.4162L24.1638 36.434L25.1392 35.1104L26.1198 36.4458L25.4441 37.4162C25.3236 37.5891 25.2747 37.8021 25.3077 38.0105L26.196 43.6087L25.1369 45.5345Z" fill="#EB791E"/>
</svg>
