<svg width="44" height="43" viewBox="0 0 44 43" fill="none" xmlns="http://www.w3.org/2000/svg">
<path d="M41.7024 38.0191C44.0708 33.8591 43.1072 28.5989 39.418 25.5486V19.7076H40.3139C40.8086 19.7076 41.2097 19.3065 41.2097 18.8117V16.1241H42.1056C42.6004 16.1229 43.0005 15.7209 42.9993 15.2261C42.9987 14.9341 42.8557 14.6607 42.6162 14.4937L22.0114 0.159807C21.7043 -0.0532689 21.2971 -0.0532689 20.9901 0.159807L0.385249 14.4937C-0.0204929 14.7769 -0.119766 15.3353 0.163355 15.741C0.33049 15.9805 0.603868 16.1234 0.895891 16.1241H1.79178V18.8117C1.79178 19.3065 2.19291 19.7076 2.68767 19.7076H3.58357V34.0414H2.68759C2.19282 34.0414 1.7917 34.4425 1.7917 34.9373V37.7862C0.720526 38.1649 0.00319151 39.1762 0 40.3124V42.1041C0 42.5989 0.401123 43 0.895891 43H42.1056C42.6004 43 43.0015 42.5989 43.0015 42.1041V40.3124C42.9988 39.3735 42.5063 38.5041 41.7024 38.0191ZM39.418 17.9159H32.2511V16.1242H39.418V17.9159ZM37.6263 19.7076V24.375C36.5097 23.8015 35.293 23.4486 34.0428 23.3358V19.7076H37.6263ZM21.5007 1.98737L39.2478 14.3324H3.75364L21.5007 1.98737ZM11.6463 34.0414H10.7504V19.7076H11.6463C12.141 19.7076 12.5421 19.3065 12.5421 18.8117V16.1241H16.1255V18.8117C16.1255 19.3065 16.5267 19.7076 17.0214 19.7076H17.9173V34.0414H17.0214C16.5267 34.0414 16.1255 34.4425 16.1255 34.9373V37.6249H12.5421V34.9373C12.5421 34.4425 12.141 34.0414 11.6463 34.0414ZM17.9172 35.8331H23.6777C23.854 36.4522 24.0911 37.0524 24.3854 37.6248H17.9173V35.8331H17.9172ZM19.709 34.0414V19.7076H23.2925V34.0414H19.709ZM24.1883 17.9159H17.9172V16.1242H25.0841V17.9159H24.1883ZM25.0842 19.7076H25.9801C26.4749 19.7076 26.876 19.3065 26.876 18.8117V16.1241H30.4595V18.8117C30.4595 19.3065 30.8606 19.7076 31.3554 19.7076H32.2511V23.3358C29.3674 23.6011 26.7463 25.1213 25.0842 27.4926V19.7076ZM3.58348 16.1241H10.7504V17.9158H3.58348V16.1241ZM8.95866 19.7076V34.0414H5.37518V19.7076H8.95866ZM3.58348 35.8331H10.7504V37.6248H3.58348V35.8331ZM1.7917 41.2083V40.3124C1.7917 39.8176 2.19282 39.4165 2.68759 39.4165H25.55C26.1153 40.0977 26.7691 40.7003 27.494 41.2082H1.7917V41.2083ZM41.2097 41.2083H38.7909C39.4888 40.7209 40.1211 40.1459 40.6722 39.4972C40.9968 39.6388 41.2074 39.9584 41.2097 40.3125V41.2083ZM33.147 41.2083C28.6941 41.2083 25.0842 37.5984 25.0842 33.1455C25.0842 28.6926 28.6941 25.0828 33.147 25.0828C37.5999 25.0828 41.2097 28.6926 41.2097 33.1455C41.2097 37.5984 37.5999 41.2083 33.147 41.2083Z" fill="#EB791E"/>
<path d="M31.9285 10.9192L22.074 3.75232L20.9721 5.20362L28.5959 10.749H12.542V12.5407H31.3551C31.759 12.5605 32.1261 12.3073 32.251 11.9226C32.3725 11.5536 32.2422 11.1483 31.9285 10.9192Z" fill="#EB791E"/>
<path d="M38.5578 33.5294H36.9481V31.9824H38.5578C38.7996 31.9824 38.9957 31.7866 38.9957 31.5447C38.9957 31.3027 38.7996 31.1067 38.5578 31.1067H36.9481V28.9602C36.9481 28.6469 36.8862 28.4169 36.7642 28.2768C36.6482 28.1436 36.4956 28.0815 36.2844 28.0815C36.0829 28.0815 35.9361 28.1431 35.8224 28.2756C35.7017 28.4158 35.6405 28.6462 35.6405 28.9604V31.107H32.6127L31.3253 29.1589C31.2151 28.985 31.1115 28.8222 31.0109 28.6659C30.9204 28.5251 30.832 28.4105 30.7486 28.3249C30.6747 28.2491 30.5905 28.1905 30.492 28.1454C30.3991 28.103 30.281 28.0817 30.1413 28.0817C29.9631 28.0817 29.8013 28.1305 29.6464 28.2308C29.4931 28.3301 29.3871 28.4527 29.3224 28.6059C29.2655 28.7515 29.2355 28.9745 29.2355 29.2624V31.1069H27.6418C27.4 31.1069 27.2041 31.3029 27.2041 31.5448C27.2041 31.7867 27.4 31.9825 27.6419 31.9825H29.2355V33.5297H27.6419C27.4 33.5297 27.2041 33.7256 27.2041 33.9676C27.2041 34.2094 27.4 34.4052 27.6419 34.4052H29.2355V36.856C29.2355 37.16 29.2994 37.3877 29.4259 37.5324C29.5463 37.6703 29.6989 37.7343 29.9061 37.7343C30.106 37.7343 30.2574 37.67 30.383 37.5318C30.5116 37.3902 30.5766 37.1627 30.5766 36.856V34.4052H33.3164L34.799 36.6787C34.9021 36.829 35.0086 36.9807 35.1148 37.1294C35.2105 37.263 35.315 37.3807 35.4253 37.479C35.5246 37.5679 35.631 37.6331 35.7417 37.6728C35.8556 37.7138 35.9887 37.7346 36.1365 37.7346C36.5374 37.7346 36.9481 37.6119 36.9481 36.7015V34.4052H38.5577C38.7996 34.4052 38.9956 34.2091 38.9956 33.9673C38.9957 33.7255 38.7996 33.5294 38.5578 33.5294ZM35.6405 31.9824V33.5294H34.2138L33.1916 31.9824H35.6405ZM30.5766 30.2049L31.1649 31.1067H30.5766V30.2049ZM30.5766 33.5294V31.9824H31.7362L32.7452 33.5294H30.5766ZM35.6405 35.6886L34.7926 34.4052H35.6405V35.6886Z" fill="#EB791E"/>
</svg>
