<svg width="44" height="40" viewBox="0 0 44 40" fill="none" xmlns="http://www.w3.org/2000/svg">
<path d="M41.7024 34.5628C44.0708 30.781 43.1072 25.999 39.418 23.226V17.916H40.3139C40.8086 17.916 41.2097 17.5513 41.2097 17.1015V14.6583H42.1056C42.6004 14.6572 43.0005 14.2917 42.9993 13.8419C42.9987 13.5764 42.8557 13.3279 42.6162 13.176L22.0114 0.145279C21.7043 -0.0484263 21.2971 -0.0484263 20.9901 0.145279L0.385249 13.176C-0.0204929 13.4335 -0.119766 13.9412 0.163355 14.31C0.33049 14.5277 0.603868 14.6577 0.895891 14.6583H1.79178V17.1015C1.79178 17.5513 2.19291 17.916 2.68767 17.916H3.58357V30.9467H2.68759C2.19282 30.9467 1.7917 31.3114 1.7917 31.7612V34.3511C0.720526 34.6953 0.00319151 35.6148 0 36.6476V38.2765C0 38.7263 0.401123 39.0909 0.895891 39.0909H42.1056C42.6004 39.0909 43.0015 38.7263 43.0015 38.2765V36.6476C42.9988 35.7941 42.5063 35.0037 41.7024 34.5628ZM39.418 16.2872H32.2511V14.6583H39.418V16.2872ZM37.6263 17.916V22.1591C36.5097 21.6378 35.293 21.3169 34.0428 21.2144V17.916H37.6263ZM21.5007 1.8067L39.2478 13.0294H3.75364L21.5007 1.8067ZM11.6463 30.9467H10.7504V17.916H11.6463C12.141 17.916 12.5421 17.5513 12.5421 17.1015V14.6583H16.1255V17.1015C16.1255 17.5513 16.5267 17.916 17.0214 17.916H17.9173V30.9467H17.0214C16.5267 30.9467 16.1255 31.3114 16.1255 31.7612V34.2045H12.5421V31.7612C12.5421 31.3113 12.141 30.9467 11.6463 30.9467ZM17.9172 32.5756H23.6777C23.854 33.1384 24.0911 33.684 24.3854 34.2044H17.9173L17.9172 32.5756ZM19.709 30.9467V17.916H23.2925V30.9467H19.709ZM24.1883 16.2872H17.9172V14.6583H25.0841V16.2872H24.1883ZM25.0842 17.916H25.9801C26.4749 17.916 26.876 17.5513 26.876 17.1015V14.6583H30.4595V17.1015C30.4595 17.5513 30.8606 17.916 31.3554 17.916H32.2511V21.2144C29.3674 21.4555 26.7463 22.8376 25.0842 24.9933V17.916ZM3.58348 14.6583H10.7504V16.2871H3.58348V14.6583ZM8.95866 17.916V30.9467H5.37518V17.916H8.95866ZM3.58348 32.5756H10.7504V34.2044H3.58348V32.5756ZM1.7917 37.4621V36.6476C1.7917 36.1979 2.19282 35.8332 2.68759 35.8332H25.55C26.1153 36.4524 26.7691 37.0002 27.494 37.462L1.7917 37.4621ZM41.2097 37.4621H38.7909C39.4888 37.019 40.1211 36.4962 40.6722 35.9066C40.9968 36.0353 41.2074 36.3258 41.2097 36.6477V37.4621ZM33.147 37.4621C28.6941 37.4621 25.0842 34.1804 25.0842 30.1323C25.0842 26.0842 28.6941 22.8025 33.147 22.8025C37.5999 22.8025 41.2097 26.0842 41.2097 30.1323C41.2097 34.1804 37.5999 37.4621 33.147 37.4621Z" fill="#E05117"/>
<path d="M31.9285 9.9266L22.074 3.41125L20.9721 4.73062L28.5959 9.77191H12.542V11.4007H31.3551C31.759 11.4187 32.1261 11.1885 32.251 10.8388C32.3725 10.5033 32.2422 10.1349 31.9285 9.9266Z" fill="#E05117"/>
<path d="M38.5578 30.4813H36.9481V29.0749H38.5578C38.7996 29.0749 38.9957 28.8969 38.9957 28.677C38.9957 28.457 38.7996 28.2789 38.5578 28.2789H36.9481V26.3275C36.9481 26.0427 36.8862 25.8336 36.7642 25.7062C36.6482 25.5851 36.4956 25.5287 36.2844 25.5287C36.0829 25.5287 35.9361 25.5847 35.8224 25.7051C35.7017 25.8326 35.6405 26.042 35.6405 26.3276V28.2791H32.6127L31.3253 26.5081C31.2151 26.3501 31.1115 26.202 31.0109 26.0599C30.9204 25.9319 30.832 25.8277 30.7486 25.7499C30.6747 25.681 30.5905 25.6277 30.492 25.5867C30.3991 25.5482 30.281 25.5288 30.1413 25.5288C29.9631 25.5288 29.8013 25.5732 29.6464 25.6644C29.4931 25.7546 29.3871 25.8661 29.3224 26.0054C29.2655 26.1377 29.2355 26.3405 29.2355 26.6022V28.279H27.6418C27.4 28.279 27.2041 28.4572 27.2041 28.6771C27.2041 28.897 27.4 29.0751 27.6419 29.0751H29.2355V30.4815H27.6419C27.4 30.4815 27.2041 30.6597 27.2041 30.8796C27.2041 31.0995 27.4 31.2775 27.6419 31.2775H29.2355V33.5054C29.2355 33.7819 29.2994 33.9888 29.4259 34.1203C29.5463 34.2457 29.6989 34.3039 29.9061 34.3039C30.106 34.3039 30.2574 34.2455 30.383 34.1198C30.5116 33.9911 30.5766 33.7843 30.5766 33.5055V31.2775H33.3164L34.799 33.3443C34.9021 33.4809 35.0086 33.6188 35.1148 33.754C35.2105 33.8755 35.315 33.9825 35.4253 34.0718C35.5246 34.1526 35.631 34.2119 35.7417 34.248C35.8556 34.2853 35.9887 34.3042 36.1365 34.3042C36.5374 34.3042 36.9481 34.1926 36.9481 33.365V31.2775H38.5577C38.7996 31.2775 38.9956 31.0992 38.9956 30.8794C38.9957 30.6595 38.7996 30.4813 38.5578 30.4813ZM35.6405 29.0749V30.4813H34.2138L33.1916 29.0749H35.6405ZM30.5766 27.459L31.1649 28.2789H30.5766V27.459ZM30.5766 30.4813V29.0749H31.7362L32.7452 30.4813H30.5766ZM35.6405 32.4442L34.7926 31.2775H35.6405V32.4442Z" fill="#E05117"/>
</svg>
