<svg width="135" height="149" viewBox="0 0 135 149" fill="none" xmlns="http://www.w3.org/2000/svg">
<path d="M12.0293 24.0099C12.0293 12.9643 20.9836 4.00995 32.0293 4.00995H109.654C120.699 4.00995 129.654 12.9643 129.654 24.0099V105.644C129.654 116.69 120.699 125.644 109.654 125.644H32.0293C20.9836 125.644 12.0293 116.69 12.0293 105.644V24.0099Z" fill="url(#paint0_linear)"/>
<path d="M32.2363 0H102.621L135.001 56.246H62.2306L32.2363 0Z" fill="#F77824"/>
<path d="M75.6094 5.66223H98.6248L109.213 24.1592H85.4174L75.6094 5.66223Z" fill="white"/>
<path d="M34.6098 111.992L62.3787 56.7459H134.178L105.524 111.992H34.6098Z" fill="#ED451F" stroke="#E44F01"/>
<path d="M0.580966 56.2394L32.4439 0.979175L66.2355 56.2542L34.3725 111.885L0.580966 56.2394Z" fill="#F6651F" stroke="#DE4A09"/>
<path d="M47.7188 136.871V144H46.293C46.1888 143.499 46.0391 142.988 45.8438 142.467C44.8932 143.626 43.6823 144.205 42.2109 144.205C40.4727 144.205 39.1185 143.583 38.1484 142.34C37.1849 141.096 36.7031 139.488 36.7031 137.516C36.7031 135.393 37.2174 133.688 38.2461 132.398C39.2812 131.109 40.6842 130.465 42.4551 130.465C43.9395 130.465 45.1374 130.882 46.0488 131.715C46.9603 132.548 47.5169 133.658 47.7188 135.045L44.75 135.436C44.5091 133.821 43.7441 133.014 42.4551 133.014C41.6087 133.014 40.9674 133.398 40.5312 134.166C40.1016 134.928 39.8867 136.018 39.8867 137.438C39.8867 138.805 40.1211 139.85 40.5898 140.572C41.0586 141.295 41.7259 141.656 42.5918 141.656C43.1517 141.656 43.6497 141.474 44.0859 141.109C44.5286 140.745 44.75 140.162 44.75 139.361H42.2402V136.871H47.7188ZM58.5586 130.67V133.307H55.2578V144H52.0938V133.307H48.7734V130.67H58.5586ZM76.498 130.67L73.1387 144H70.082L67.8848 135.182L65.7754 144H62.7285L59.3008 130.67H62.4844L64.3203 138.805C64.3268 138.844 64.3626 138.987 64.4277 139.234C64.4538 139.326 64.4896 139.462 64.5352 139.645L66.7129 130.67H69.5938L71.8398 139.645C71.8854 139.475 71.9505 139.195 72.0352 138.805L73.9297 130.67H76.498ZM81.4297 133.932C82.9336 133.932 84.1055 134.423 84.9453 135.406C85.7917 136.389 86.2148 137.62 86.2148 139.098C86.2148 140.556 85.7754 141.773 84.8965 142.75C84.0241 143.72 82.862 144.205 81.4102 144.205C80.0039 144.205 78.8776 143.723 78.0312 142.76C77.1914 141.796 76.7715 140.559 76.7715 139.049C76.7715 138.001 76.9603 137.112 77.3379 136.383C77.722 135.647 78.2461 135.055 78.9102 134.605C79.5742 134.156 80.4141 133.932 81.4297 133.932ZM81.5078 135.836C80.9544 135.836 80.5378 136.051 80.2578 136.48C79.9779 136.904 79.8379 137.75 79.8379 139.02C79.8379 140.185 79.9714 141.021 80.2383 141.529C80.5052 142.037 80.9219 142.291 81.4883 142.291C81.9831 142.291 82.3835 142.076 82.6895 141.646C82.9954 141.21 83.1484 140.383 83.1484 139.166C83.1484 137.87 83.0117 136.992 82.7383 136.529C82.4714 136.067 82.0612 135.836 81.5078 135.836ZM90.8633 144H88.041V134.137H90.707V135.973C91.1172 134.605 91.8268 133.922 92.8359 133.922C92.9792 133.922 93.1549 133.932 93.3633 133.951V136.822C92.7708 136.822 92.3086 136.913 91.9766 137.096C91.651 137.278 91.3841 137.607 91.1758 138.082C90.9674 138.551 90.8633 139.186 90.8633 139.986V144ZM94.9941 144V130.67H97.9043V144H94.9941ZM108.686 130.67V144H106V142.457C105.336 143.622 104.431 144.205 103.285 144.205C102.198 144.205 101.339 143.762 100.707 142.877C100.082 141.985 99.7695 140.751 99.7695 139.176C99.7695 137.535 100.082 136.253 100.707 135.328C101.339 134.397 102.25 133.932 103.441 133.932C104.49 133.932 105.297 134.345 105.863 135.172V130.67H108.686ZM105.863 138.268C105.863 136.718 105.395 135.943 104.457 135.943C103.337 135.943 102.777 137.037 102.777 139.225C102.777 141.171 103.301 142.145 104.35 142.145C104.753 142.145 105.105 141.969 105.404 141.617C105.71 141.266 105.863 140.764 105.863 140.113V138.268Z" fill="white"/>
<defs>
<linearGradient id="paint0_linear" x1="70.8415" y1="4.00995" x2="70.8415" y2="125.644" gradientUnits="userSpaceOnUse">
<stop stop-color="#ED5910"/>
<stop offset="0.395833" stop-color="#EE441A"/>
<stop offset="0.911458" stop-color="#D92E0A"/>
</linearGradient>
</defs>
</svg>
