<svg width="18" height="14" viewBox="0 0 18 14" fill="none" xmlns="http://www.w3.org/2000/svg">
<path d="M0 1.61538C0 0.723233 0.723232 0 1.61538 0H15.6154C16.5075 0 17.2308 0.723233 17.2308 1.61538C17.2308 2.50754 16.5075 3.23077 15.6154 3.23077H1.61538C0.723233 3.23077 0 2.50754 0 1.61538Z" fill="#EB791E"/>
<path d="M0 7.00003C0 6.10788 0.723232 5.38464 1.61538 5.38464H15.6154C16.5075 5.38464 17.2308 6.10788 17.2308 7.00003C17.2308 7.89218 16.5075 8.61541 15.6154 8.61541H1.61538C0.723233 8.61541 0 7.89218 0 7.00003Z" fill="#EB791E"/>
<path d="M0 12.3846C0 11.4925 0.723232 10.7692 1.61538 10.7692H15.6154C16.5075 10.7692 17.2308 11.4925 17.2308 12.3846C17.2308 13.2768 16.5075 14 15.6154 14H1.61538C0.723233 14 0 13.2768 0 12.3846Z" fill="#EB791E"/>
</svg>
