<svg width="35" height="34" viewBox="0 0 35 34" fill="none" xmlns="http://www.w3.org/2000/svg">
<path fill-rule="evenodd" clip-rule="evenodd" d="M29.3492 9.27813H1.83696C1.18826 9.27813 0.62781 8.82526 0.491885 8.19137C0.355316 7.55749 0.680634 6.91458 1.27265 6.64788L15.0301 0.457823C15.3895 0.296774 15.7999 0.296774 16.1587 0.457823L29.8092 6.60021C30.3496 6.78574 30.7387 7.29787 30.7387 7.90213C30.7387 8.66228 30.1235 9.27813 29.3627 9.27813H29.3492ZM3.55632 24.2711C2.79617 24.2711 2.18032 24.8869 2.18032 25.6471C2.18032 26.4072 2.79617 27.0237 3.55632 27.0237H23.0192C23.0115 27.1459 23.0076 27.2691 23.0076 27.3932C23.0076 27.5464 23.0136 27.6981 23.0252 27.8483H1.83696C1.07681 27.8483 0.460964 28.4642 0.460964 29.225C0.460964 29.9845 1.07681 30.6003 1.83696 30.6003H23.9747C25.0134 32.1619 26.7892 33.191 28.8054 33.191C32.0074 33.191 34.6031 30.5952 34.6031 27.3932C34.6031 24.1912 32.0074 21.5955 28.8054 21.5955C28.2798 21.5955 27.7706 21.6654 27.2865 21.7965V11.8897H27.6298C28.0106 11.8897 28.3172 11.5818 28.3172 11.2023C28.3172 10.8229 28.0093 10.515 27.6298 10.515H3.55632C3.17624 10.515 2.86896 10.8229 2.86896 11.2023C2.86896 11.5818 3.17689 11.8897 3.55632 11.8897H3.90032V24.2705L3.55632 24.2711ZM24.5345 23.4723V11.8897H20.4078V24.2705H23.9196C24.1015 23.9865 24.3074 23.7195 24.5345 23.4723ZM17.6558 11.8897V24.2705H13.5291V11.8897H17.6558ZM6.65102 11.8897H10.7777V24.2705H6.65102V11.8897Z" fill="#E96201"/>
<path d="M29.0269 26.8102C29.4779 26.8102 29.8683 26.6485 30.1874 26.3294C30.5064 26.0104 30.6681 25.62 30.6681 25.169C30.6681 24.7182 30.5064 24.3278 30.1873 24.0087C29.8682 23.6897 29.4778 23.528 29.0269 23.528C28.576 23.528 28.1856 23.6897 27.8666 24.0087C27.5475 24.3278 27.3857 24.7182 27.3857 25.169C27.3857 25.62 27.5475 26.0104 27.8666 26.3295C28.1857 26.6485 28.5761 26.8102 29.0269 26.8102ZM28.1489 24.2911C28.3938 24.0463 28.6809 23.9273 29.0269 23.9273C29.3729 23.9273 29.6601 24.0463 29.905 24.2911C30.1498 24.5359 30.2688 24.8231 30.2688 25.169C30.2688 25.5151 30.1498 25.8022 29.905 26.0471C29.6601 26.2919 29.3729 26.4109 29.0269 26.4109C28.681 26.4109 28.3939 26.2919 28.1489 26.0471C27.9041 25.8023 27.785 25.5151 27.785 25.169C27.785 24.8231 27.9041 24.5359 28.1489 24.2911Z" fill="white"/>
<path d="M31.8986 28.7631C31.8894 28.6303 31.8708 28.4855 31.8434 28.3326C31.8158 28.1785 31.7802 28.0328 31.7375 27.8997C31.6934 27.7621 31.6336 27.6262 31.5595 27.496C31.4827 27.3608 31.3925 27.2431 31.2912 27.1462C31.1853 27.0449 31.0557 26.9635 30.9058 26.904C30.7563 26.8449 30.5908 26.815 30.4137 26.815C30.3441 26.815 30.2768 26.8435 30.1469 26.9281C30.067 26.9803 29.9734 27.0406 29.8691 27.1073C29.7798 27.1641 29.6589 27.2174 29.5095 27.2657C29.3638 27.3128 29.2158 27.3367 29.0698 27.3367C28.9238 27.3367 28.7758 27.3128 28.63 27.2657C28.4808 27.2175 28.3598 27.1642 28.2707 27.1073C28.1673 27.0412 28.0738 26.9809 27.9926 26.9281C27.8628 26.8435 27.7955 26.8149 27.726 26.8149C27.5488 26.8149 27.3833 26.8449 27.2339 26.9041C27.0841 26.9634 26.9544 27.0449 26.8484 27.1463C26.7471 27.2432 26.6569 27.3608 26.5802 27.496C26.5062 27.6262 26.4463 27.762 26.4022 27.8997C26.3596 28.0329 26.324 28.1785 26.2964 28.3326C26.2689 28.4853 26.2504 28.6302 26.2412 28.7633C26.2321 28.8934 26.2275 29.0288 26.2275 29.1656C26.2275 29.5213 26.3406 29.8093 26.5636 30.0216C26.7838 30.2312 27.0751 30.3375 27.4295 30.3375H30.7104C31.0647 30.3375 31.3561 30.2312 31.5763 30.0216C31.7993 29.8094 31.9124 29.5214 31.9124 29.1656C31.9124 29.0283 31.9077 28.8929 31.8986 28.7631ZM31.301 29.7323C31.1555 29.8708 30.9623 29.9382 30.7104 29.9382H27.4295C27.1775 29.9382 26.9844 29.8708 26.8389 29.7324C26.6962 29.5966 26.6268 29.4111 26.6268 29.1656C26.6268 29.038 26.6311 28.9119 26.6395 28.7909C26.6477 28.6721 26.6645 28.5417 26.6894 28.4031C26.714 28.2662 26.7453 28.1378 26.7825 28.0215C26.8182 27.91 26.8669 27.7996 26.9273 27.6932C26.985 27.5918 27.0513 27.5048 27.1245 27.4348C27.193 27.3692 27.2793 27.3156 27.381 27.2753C27.475 27.2381 27.5807 27.2177 27.6954 27.2147C27.7094 27.2221 27.7343 27.2363 27.7746 27.2626C27.8567 27.3161 27.9513 27.3771 28.0559 27.4439C28.1738 27.5191 28.3257 27.587 28.5072 27.6456C28.6928 27.7056 28.882 27.736 29.0698 27.736C29.2576 27.736 29.4469 27.7056 29.6324 27.6456C29.814 27.5869 29.9658 27.5191 30.0839 27.4438C30.1909 27.3754 30.2829 27.3161 30.365 27.2626C30.4053 27.2363 30.4302 27.2221 30.4442 27.2147C30.559 27.2177 30.6647 27.2381 30.7588 27.2753C30.8604 27.3156 30.9467 27.3693 31.0152 27.4348C31.0884 27.5048 31.1547 27.5918 31.2124 27.6932C31.2728 27.7996 31.3216 27.91 31.3573 28.0214C31.3945 28.1379 31.4259 28.2663 31.4504 28.4031C31.4753 28.5419 31.4921 28.6724 31.5003 28.7909V28.791C31.5088 28.9116 31.5131 29.0376 31.5131 29.1656C31.5131 29.4112 31.4437 29.5966 31.301 29.7323Z" fill="white"/>
<path d="M29.0299 26.4822C29.4808 26.4822 29.8712 26.3205 30.1903 26.0014C30.5093 25.6824 30.6711 25.292 30.6711 24.841C30.6711 24.3902 30.5093 23.9998 30.1902 23.6807C29.8712 23.3617 29.4807 23.2 29.0299 23.2C28.5789 23.2 28.1885 23.3617 27.8695 23.6807C27.5505 23.9998 27.3887 24.3902 27.3887 24.841C27.3887 25.292 27.5505 25.6824 27.8695 26.0015C28.1886 26.3205 28.579 26.4822 29.0299 26.4822ZM28.1519 23.9631C28.3967 23.7183 28.6839 23.5993 29.0299 23.5993C29.3758 23.5993 29.6631 23.7183 29.9079 23.9631C30.1527 24.2079 30.2718 24.4951 30.2718 24.841C30.2718 25.1871 30.1527 25.4742 29.9079 25.7191C29.6631 25.9639 29.3758 26.0829 29.0299 26.0829C28.684 26.0829 28.3968 25.9639 28.1519 25.7191C27.907 25.4743 27.788 25.1871 27.788 24.841C27.788 24.4951 27.907 24.2079 28.1519 23.9631Z" fill="white"/>
<path d="M31.9016 28.4351C31.8924 28.3023 31.8738 28.1575 31.8464 28.0046C31.8187 27.8505 31.7831 27.7048 31.7405 27.5717C31.6964 27.4341 31.6365 27.2982 31.5625 27.168C31.4857 27.0328 31.3954 26.9151 31.2942 26.8182C31.1883 26.7169 31.0586 26.6355 30.9087 26.576C30.7593 26.5169 30.5937 26.487 30.4166 26.487C30.347 26.487 30.2798 26.5155 30.1498 26.6001C30.0699 26.6523 29.9764 26.7126 29.872 26.7793C29.7827 26.8361 29.6618 26.8894 29.5124 26.9377C29.3667 26.9848 29.2188 27.0087 29.0727 27.0087C28.9267 27.0087 28.7788 26.9848 28.6329 26.9377C28.4837 26.8895 28.3628 26.8362 28.2737 26.7793C28.1703 26.7132 28.0767 26.6529 27.9955 26.6001C27.8657 26.5155 27.7985 26.4869 27.7289 26.4869C27.5517 26.4869 27.3862 26.5169 27.2369 26.5761C27.087 26.6354 26.9573 26.7169 26.8513 26.8183C26.7501 26.9152 26.6598 27.0328 26.5831 27.168C26.5091 27.2982 26.4492 27.434 26.4051 27.5717C26.3626 27.7049 26.327 27.8505 26.2993 28.0046C26.2718 28.1573 26.2533 28.3022 26.2441 28.4353C26.235 28.5654 26.2305 28.7008 26.2305 28.8376C26.2305 29.1933 26.3435 29.4813 26.5665 29.6936C26.7867 29.9032 27.078 30.0095 27.4324 30.0095H30.7134C31.0677 30.0095 31.359 29.9032 31.5793 29.6936C31.8023 29.4814 31.9153 29.1934 31.9153 28.8376C31.9153 28.7003 31.9107 28.5649 31.9016 28.4351ZM31.3039 29.4043C31.1584 29.5428 30.9652 29.6102 30.7133 29.6102H27.4324C27.1805 29.6102 26.9873 29.5428 26.8418 29.4044C26.6991 29.2686 26.6298 29.0831 26.6298 28.8376C26.6298 28.71 26.634 28.5839 26.6424 28.4629C26.6506 28.3441 26.6674 28.2137 26.6923 28.0751C26.7169 27.9382 26.7482 27.8098 26.7854 27.6935C26.8211 27.582 26.8698 27.4716 26.9303 27.3652C26.9879 27.2638 27.0542 27.1768 27.1274 27.1068C27.1959 27.0412 27.2822 26.9876 27.3839 26.9473C27.4779 26.9101 27.5836 26.8897 27.6983 26.8867C27.7123 26.8941 27.7372 26.9083 27.7776 26.9346C27.8597 26.9881 27.9543 27.0491 28.0589 27.1159C28.1768 27.1911 28.3287 27.259 28.5102 27.3176C28.6957 27.3776 28.8849 27.408 29.0727 27.408C29.2606 27.408 29.4499 27.3776 29.6353 27.3176C29.8169 27.2589 29.9688 27.1911 30.0868 27.1158C30.1939 27.0474 30.2858 26.9881 30.3679 26.9346C30.4083 26.9083 30.4332 26.8941 30.4472 26.8867C30.5619 26.8897 30.6676 26.9101 30.7617 26.9473C30.8634 26.9876 30.9497 27.0413 31.0181 27.1068C31.0913 27.1768 31.1576 27.2638 31.2153 27.3652C31.2758 27.4716 31.3245 27.582 31.3602 27.6934C31.3975 27.8099 31.4288 27.9383 31.4533 28.0751C31.4782 28.2139 31.495 28.3444 31.5032 28.4629V28.463C31.5117 28.5836 31.516 28.7096 31.516 28.8376C31.516 29.0832 31.4466 29.2686 31.3039 29.4043Z" fill="white"/>
</svg>
