<svg width="65" height="61" viewBox="0 0 65 61" fill="none" xmlns="http://www.w3.org/2000/svg">
<g clip-path="url(#clip0)">
<path d="M42.2338 26.5777C44.5537 26.5777 46.4344 24.8128 46.4344 22.6356C46.4344 20.4584 44.5537 18.6935 42.2338 18.6935C39.9139 18.6935 38.0332 20.4584 38.0332 22.6356C38.0332 24.8128 39.9139 26.5777 42.2338 26.5777Z" fill="#E05117"/>
<path d="M30.7855 37.1426L29.0685 35.4247L29.491 35.0526C29.677 34.8887 29.7023 34.6251 29.563 34.4329C30.1606 34.3298 30.6739 33.9172 30.8437 33.3296C31.1738 32.1912 32.2322 31.0738 33.7482 30.2654C34.0771 30.0908 34.4166 29.9357 34.761 29.7997L32.507 36.4202C32.3702 36.8244 32.345 37.2213 32.4007 37.6014L30.8164 41.5688L25.8819 41.7991C24.8186 41.8488 24 42.6976 24.0529 43.6947C24.1038 44.662 24.9554 45.4138 25.9763 45.4138C26.0081 45.4138 26.0407 45.4131 26.0732 45.4115L32.2725 45.1223C33.0403 45.0861 33.7123 44.6261 33.9822 43.9507L35.3671 40.4815C35.5328 40.5243 35.7005 40.5575 35.8714 40.5824L38.3998 44.0057L36.2354 51.5354C35.959 52.4996 36.5663 53.4929 37.5946 53.7527C37.7631 53.7955 37.9316 53.8153 38.0973 53.8153C38.9473 53.8153 39.7252 53.2839 39.9572 52.4775L42.3541 44.1367C42.5022 43.6221 42.4005 43.0739 42.0777 42.6354L39.5567 39.2212C39.6751 39.0398 39.7745 38.8422 39.8502 38.6218L41.938 32.4873C42.5552 32.8605 43.2643 33.1566 44.0503 33.3579C44.7904 33.5481 45.5484 33.6402 46.2876 33.6402C47.9566 33.6402 49.5348 33.1707 50.6351 32.2951C51.3215 31.7477 51.4069 30.7823 50.8236 30.1382C50.2403 29.4941 49.212 29.4139 48.5253 29.9613C47.7588 30.5722 46.2721 30.754 44.9101 30.4052C43.8065 30.1225 42.9964 29.5457 42.7444 28.8634C42.7212 28.8015 42.6944 28.7434 42.6634 28.6857C42.3813 27.8495 41.7101 27.1332 40.9733 26.6824C40.8039 26.5418 40.6004 26.4326 40.3712 26.3668C40.2699 26.3248 40.1591 26.2851 40.0439 26.2534C39.612 26.1334 39.1028 26.0842 39.1028 26.0842L39.0902 26.0822C38.8805 26.0685 38.6636 26.0708 38.4454 26.0872C36.4051 26.0108 34.1267 26.5437 32.1382 27.6046C29.8382 28.8309 28.2616 30.5794 27.6974 32.5281C27.6877 32.5614 27.6812 32.595 27.6734 32.6286C27.5053 32.582 27.3152 32.6152 27.1772 32.736L26.7547 33.1088L25.038 31.3897L20.5098 35.3723L26.258 41.126L30.7855 37.1426ZM27.4687 33.0282C27.5029 32.998 27.5566 32.9999 27.5879 33.032L27.649 33.0939C27.7202 33.7013 28.1753 34.2354 28.8421 34.4058C28.891 34.4176 28.9394 34.4257 28.987 34.4333L29.0176 34.4639L29.2024 34.648C29.2349 34.6797 29.2325 34.7301 29.1983 34.7599L28.7754 35.132L27.0457 33.3999L27.4687 33.0282Z" fill="#E05117"/>
<path d="M31.6588 55.4415V47.618H14.083V50.2001H28.9078V58.024H44.0061V65.4995L46.7575 65.4452V55.4415H31.6588Z" fill="#E05117"/>
</g>
<defs>
<clipPath id="clip0">
<rect width="65" height="61" fill="white"/>
</clipPath>
</defs>
</svg>
