<svg width="60" height="62" viewBox="0 0 60 62" fill="none" xmlns="http://www.w3.org/2000/svg">
<g clip-path="url(#clip0)">
<path d="M38.9849 27.0135C41.1263 27.0135 42.8623 25.2196 42.8623 23.0067C42.8623 20.7939 41.1263 19 38.9849 19C36.8434 19 35.1074 20.7939 35.1074 23.0067C35.1074 25.2196 36.8434 27.0135 38.9849 27.0135Z" fill="#EB791E"/>
<path d="M28.4179 37.7516L26.8329 36.0054L27.223 35.6273C27.3947 35.4607 27.418 35.1928 27.2895 34.9975C27.8411 34.8926 28.3149 34.4733 28.4716 33.8761C28.7764 32.719 29.7533 31.5832 31.1527 30.7616C31.4563 30.5842 31.7697 30.4265 32.0876 30.2883L30.007 37.0173C29.8807 37.4281 29.8574 37.8316 29.9089 38.2179L28.4465 42.2503L23.8915 42.4844C22.91 42.5349 22.1544 43.3977 22.2032 44.4111C22.2502 45.3942 23.0363 46.1584 23.9787 46.1584C24.008 46.1584 24.0381 46.1576 24.0681 46.1561L29.7905 45.8621C30.4992 45.8252 31.1196 45.3577 31.3687 44.6712L32.6471 41.1452C32.8 41.1887 32.9548 41.2225 33.1126 41.2477L35.4465 44.7272L33.4486 52.3803C33.1934 53.3603 33.754 54.3699 34.7032 54.6339C34.8588 54.6774 35.0143 54.6976 35.1673 54.6976C35.9519 54.6976 36.6699 54.1575 36.8841 53.3378L39.0966 44.8603C39.2334 44.3373 39.1394 43.7801 38.8414 43.3344L36.5144 39.8642C36.6237 39.6798 36.7154 39.4791 36.7853 39.255L38.7126 33.0199C39.2822 33.3993 39.9368 33.7002 40.6624 33.9048C41.3455 34.0982 42.0452 34.1918 42.7275 34.1918C44.2682 34.1918 45.725 33.7145 46.7406 32.8246C47.3742 32.2682 47.4531 31.287 46.9146 30.6323C46.3762 29.9777 45.427 29.8961 44.7931 30.4525C44.0855 31.0734 42.7133 31.2582 41.456 30.9037C40.4373 30.6164 39.6895 30.0301 39.4569 29.3366C39.4355 29.2737 39.4107 29.2147 39.3822 29.1561C39.1218 28.3061 38.5021 27.5781 37.822 27.1199C37.6657 26.977 37.4778 26.8659 37.2663 26.7992C37.1727 26.7564 37.0705 26.7161 36.9642 26.6838C36.5655 26.5619 36.0954 26.5118 36.0954 26.5118L36.0838 26.5099C35.8902 26.4959 35.69 26.4982 35.4886 26.5149C33.6052 26.4373 31.5021 26.9789 29.6665 28.0572C27.5435 29.3036 26.0882 31.0808 25.5674 33.0615C25.5584 33.0952 25.5524 33.1294 25.5452 33.1636C25.39 33.1162 25.2146 33.15 25.0872 33.2727L24.6971 33.6516L23.1126 31.9044L18.9326 35.9522L24.2387 41.8002L28.4179 37.7516ZM25.3562 33.5697C25.3878 33.539 25.4374 33.541 25.4663 33.5736L25.5227 33.6365C25.5884 34.2539 26.0085 34.7967 26.624 34.9699C26.6691 34.9819 26.7138 34.9901 26.7578 34.9978L26.786 35.0289L26.9566 35.2161C26.9866 35.2483 26.9844 35.2995 26.9528 35.3298L26.5624 35.708L24.9658 33.9475L25.3562 33.5697Z" fill="#EB791E"/>
<path d="M29.2238 56.3505V48.3987H13V51.0232H26.6844V58.9753H40.6213V66.5733L43.161 66.5182V56.3505H29.2238Z" fill="#EB791E"/>
</g>
<defs>
<clipPath id="clip0">
<rect width="60" height="62" fill="white"/>
</clipPath>
</defs>
</svg>
