<svg width="45" height="48" viewBox="0 0 45 48" fill="none" xmlns="http://www.w3.org/2000/svg">
<path d="M36.2283 34.0249C38.6118 31.3939 39.9327 27.9545 39.9297 24.3856C39.9297 16.9285 34.2599 10.7868 27.0523 10.1377V4.99548C27.0494 2.2377 24.8403 0.00296946 22.1142 0H4.93812C2.21201 0.00296946 0.00293537 2.2377 0 4.99548V43.0045C0.00293537 45.7623 2.21201 47.997 4.93812 48H22.1142C24.8403 47.997 27.0494 45.7623 27.0523 43.0045V38.6331C30.1328 38.3552 33.0371 37.0597 35.3174 34.9463L41.8943 41.6C42.0562 41.768 42.2952 41.8354 42.52 41.7756C42.7443 41.7158 42.9196 41.5385 42.9787 41.3111C43.0379 41.0841 42.9716 40.8423 42.8051 40.6782L36.2283 34.0249ZM38.6415 24.3856C38.6415 31.5666 32.8874 37.388 25.7888 37.388C18.6903 37.388 12.9357 31.5666 12.9357 24.3856C12.9357 17.2046 18.6903 11.3836 25.7888 11.3836C32.884 11.3917 38.6336 17.208 38.6415 24.3856ZM4.93812 1.30317H22.1142C24.1291 1.30529 25.762 2.95716 25.7641 4.99548V6.51584H24.2612C23.9056 6.51584 23.6171 6.80769 23.6171 7.16742C23.6171 7.52715 23.9056 7.81901 24.2612 7.81901H25.7641V10.0805C17.9778 10.094 11.6475 16.5059 11.6475 24.3856C11.6475 32.2653 17.9778 38.6772 25.7641 38.6908V38.8778H1.28821V7.81901H18.7863C19.1419 7.81901 19.4304 7.52715 19.4304 7.16742C19.4304 6.80769 19.1419 6.51584 18.7863 6.51584H1.28821V4.99548C1.2903 2.95716 2.9232 1.30529 4.93812 1.30317ZM22.1142 46.6968H4.93812C2.9232 46.6947 1.2903 45.0429 1.28821 43.0045V40.181H25.7641V43.0045C25.762 45.0429 24.1291 46.6947 22.1142 46.6968Z" fill="#EB791E"/>
<path d="M37.2283 34.0249C39.6118 31.394 40.9327 27.9545 40.9297 24.3856C40.9297 16.9285 35.2599 10.7868 28.0523 10.1377V4.99548C28.0494 2.2377 25.8403 0.00296946 23.1142 0H5.93812C3.21201 0.00296946 1.00294 2.2377 1 4.99548V43.0045C1.00294 45.7623 3.21201 47.997 5.93812 48H23.1142C25.8403 47.997 28.0494 45.7623 28.0523 43.0045V38.6331C31.1328 38.3552 34.0371 37.0597 36.3174 34.9463L42.8943 41.6C43.0562 41.768 43.2952 41.8354 43.52 41.7756C43.7443 41.7158 43.9196 41.5385 43.9787 41.3111C44.0379 41.0841 43.9716 40.8423 43.8051 40.6782L37.2283 34.0249ZM39.6415 24.3856C39.6415 31.5666 33.8874 37.388 26.7888 37.388C19.6903 37.388 13.9357 31.5666 13.9357 24.3856C13.9357 17.2046 19.6903 11.3836 26.7888 11.3836C33.884 11.3917 39.6336 17.208 39.6415 24.3856ZM5.93812 1.30317H23.1142C25.1291 1.30529 26.762 2.95716 26.7641 4.99548V6.51584H25.2612C24.9056 6.51584 24.6171 6.80769 24.6171 7.16742C24.6171 7.52715 24.9056 7.81901 25.2612 7.81901H26.7641V10.0805C18.9778 10.094 12.6475 16.5059 12.6475 24.3856C12.6475 32.2653 18.9778 38.6772 26.7641 38.6908V38.8778H2.28821V7.81901H19.7863C20.1419 7.81901 20.4304 7.52715 20.4304 7.16742C20.4304 6.80769 20.1419 6.51584 19.7863 6.51584H2.28821V4.99548C2.2903 2.95716 3.9232 1.30529 5.93812 1.30317ZM23.1142 46.6968H5.93812C3.9232 46.6947 2.2903 45.0428 2.28821 43.0045V40.181H26.7641V43.0045C26.762 45.0428 25.1291 46.6947 23.1142 46.6968Z" fill="#EB791E"/>
<path d="M38.2283 34.0249C40.6118 31.394 41.9327 27.9545 41.9297 24.3856C41.9297 16.9285 36.2599 10.7868 29.0523 10.1377V4.99548C29.0494 2.2377 26.8403 0.00296946 24.1142 0H6.93812C4.21201 0.00296946 2.00294 2.2377 2 4.99548V43.0045C2.00294 45.7623 4.21201 47.997 6.93812 48H24.1142C26.8403 47.997 29.0494 45.7623 29.0523 43.0045V38.6331C32.1328 38.3552 35.0371 37.0597 37.3174 34.9463L43.8943 41.6C44.0562 41.768 44.2952 41.8354 44.52 41.7756C44.7443 41.7158 44.9196 41.5385 44.9787 41.3111C45.0379 41.0841 44.9716 40.8423 44.8051 40.6782L38.2283 34.0249ZM40.6415 24.3856C40.6415 31.5666 34.8874 37.388 27.7888 37.388C20.6903 37.388 14.9357 31.5666 14.9357 24.3856C14.9357 17.2046 20.6903 11.3836 27.7888 11.3836C34.884 11.3917 40.6336 17.208 40.6415 24.3856ZM6.93812 1.30317H24.1142C26.1291 1.30529 27.762 2.95716 27.7641 4.99548V6.51584H26.2612C25.9056 6.51584 25.6171 6.80769 25.6171 7.16742C25.6171 7.52715 25.9056 7.81901 26.2612 7.81901H27.7641V10.0805C19.9778 10.094 13.6475 16.5059 13.6475 24.3856C13.6475 32.2653 19.9778 38.6772 27.7641 38.6908V38.8778H3.28821V7.81901H20.7863C21.1419 7.81901 21.4304 7.52715 21.4304 7.16742C21.4304 6.80769 21.1419 6.51584 20.7863 6.51584H3.28821V4.99548C3.2903 2.95716 4.9232 1.30529 6.93812 1.30317ZM24.1142 46.6968H6.93812C4.9232 46.6947 3.2903 45.0428 3.28821 43.0045V40.181H27.7641V43.0045C27.762 45.0428 26.1291 46.6947 24.1142 46.6968Z" fill="#EB791E"/>
</svg>
