<svg width="45" height="49" viewBox="0 0 45 49" fill="none" xmlns="http://www.w3.org/2000/svg">
<path d="M27.7657 19.1406H7.53923C6.77761 19.1406 6.16016 19.7834 6.16016 20.5762C6.16016 21.369 6.77761 22.0117 7.53923 22.0117H27.7657C28.5273 22.0117 29.1448 21.369 29.1448 20.5762C29.1448 19.7834 28.5273 19.1406 27.7657 19.1406Z" fill="#EB791E"/>
<path d="M27.4561 27.0597H7.22966C6.46804 27.0597 5.85059 27.7024 5.85059 28.4952C5.85059 29.288 6.46804 29.9308 7.22966 29.9308H27.4561C28.2177 29.9308 28.8352 29.288 28.8352 28.4952C28.8352 27.7024 28.2177 27.0597 27.4561 27.0597Z" fill="#EB791E"/>
<path d="M14.225 34.4531H7.53923C6.77761 34.4531 6.16016 35.0959 6.16016 35.8887C6.16016 36.6815 6.77761 37.3242 7.53923 37.3242H14.225C14.9866 37.3242 15.6041 36.6815 15.6041 35.8887C15.6041 35.0959 14.9866 34.4531 14.225 34.4531Z" fill="#EB791E"/>
<path fill-rule="evenodd" clip-rule="evenodd" d="M25.4095 1.43995L34.2745 10.1702C35.2795 11.1599 35.856 12.5537 35.856 13.9939V21.1505C40.5825 21.1762 44.4064 25.1725 44.4064 30.0986C44.4064 35.0247 40.5825 39.0211 35.856 39.0467V43.7363C35.856 46.6387 33.5876 49 30.7994 49H5.05661C2.2684 49 0 46.6387 0 43.7363V5.26367C0 2.36128 2.2684 0 5.05661 0H21.9344C23.2324 0 24.4666 0.511342 25.4095 1.43995ZM33.0978 21.605C29.6794 22.7873 27.214 26.1432 27.214 30.0986C27.214 34.054 29.6794 37.41 33.0978 38.5923V43.7363C33.0978 45.0556 32.0667 46.1289 30.7994 46.1289H5.05661C3.78924 46.1289 2.75815 45.0556 2.75815 43.7363V5.26367C2.75815 3.9444 3.78924 2.87109 5.05661 2.87109H21.5136V11.0059C21.5136 12.8528 22.9571 14.3555 24.7314 14.3555H33.0978V21.605ZM24.7314 11.4844H31.5956L24.2717 4.2718V11.0059C24.2717 11.2697 24.478 11.4844 24.7314 11.4844Z" fill="#EB791E"/>
<path d="M41.2414 30.4316H39.7479V28.9375H41.2414C41.4658 28.9375 41.6477 28.7483 41.6477 28.5147C41.6477 28.281 41.4658 28.0918 41.2414 28.0918H39.7479V26.0186C39.7479 25.716 39.6905 25.4938 39.5772 25.3585C39.4696 25.2298 39.3281 25.1699 39.1321 25.1699C38.9451 25.1699 38.8089 25.2294 38.7034 25.3573C38.5914 25.4928 38.5346 25.7153 38.5346 26.0187V28.092H35.7253L34.5308 26.2105C34.4286 26.0426 34.3325 25.8853 34.2392 25.7343C34.1551 25.5983 34.0731 25.4876 33.9957 25.4049C33.9272 25.3318 33.8491 25.2751 33.7577 25.2316C33.6715 25.1906 33.5619 25.1701 33.4323 25.1701C33.2669 25.1701 33.1168 25.2172 32.973 25.3141C32.8308 25.4099 32.7325 25.5284 32.6724 25.6764C32.6197 25.8169 32.5918 26.0324 32.5918 26.3104V28.0919H31.1132C30.8888 28.0919 30.707 28.2812 30.707 28.5148C30.707 28.7485 30.8888 28.9376 31.1132 28.9376H32.5918V30.4319H31.1132C30.8888 30.4319 30.707 30.6211 30.707 30.8548C30.707 31.0884 30.8888 31.2775 31.1132 31.2775H32.5918V33.6445C32.5918 33.9382 32.6511 34.1581 32.7685 34.2978C32.8802 34.431 33.0218 34.4929 33.2141 34.4929C33.3996 34.4929 33.54 34.4307 33.6565 34.2973C33.7758 34.1605 33.8362 33.9408 33.8362 33.6446V31.2775H36.3783L37.7539 33.4733C37.8496 33.6185 37.9483 33.765 38.0468 33.9087C38.1357 34.0377 38.2327 34.1513 38.335 34.2463C38.4271 34.3321 38.5259 34.3951 38.6285 34.4335C38.7342 34.4731 38.8577 34.4931 38.9948 34.4931C39.3669 34.4931 39.7479 34.3746 39.7479 33.4954V31.2775H41.2413C41.4658 31.2775 41.6477 31.0881 41.6477 30.8546C41.6477 30.621 41.4658 30.4316 41.2414 30.4316ZM38.5346 28.9375V30.4316H37.2109L36.2625 28.9375H38.5346ZM33.8362 27.2207L34.382 28.0918H33.8362V27.2207ZM33.8362 30.4316V28.9375H34.9121L35.8483 30.4316H33.8362ZM38.5346 32.5171L37.7479 31.2775H38.5346V32.5171Z" fill="white"/>
</svg>
