<svg width="48" height="50" viewBox="0 0 48 50" fill="none" xmlns="http://www.w3.org/2000/svg">
<path d="M47.4969 38.4185C47.4969 37.7355 46.9445 37.1831 46.2615 37.1831H4.20719L11.5996 29.7907C12.0817 29.3086 12.0817 28.5352 11.5996 28.0531C11.1175 27.5709 10.3441 27.5709 9.86197 28.0531L0.370374 37.5446C-0.111739 38.0268 -0.111739 38.8001 0.370374 39.2823L9.86197 48.7739C10.103 49.0149 10.4144 49.1354 10.7358 49.1354C11.0572 49.1354 11.3686 49.0149 11.6096 48.7739C12.0917 48.2917 12.0917 47.5184 11.6096 47.0362L4.21723 39.6438H46.2816C46.9445 39.6438 47.4969 39.1015 47.4969 38.4185Z" fill="#EB6901"/>
<path d="M47.1366 9.84313L37.645 0.361585C37.1629 -0.120528 36.3895 -0.120528 35.9074 0.361585C35.4252 0.843697 35.4252 1.61709 35.9074 2.0992L43.2997 9.49159H1.23541C0.552421 9.49159 0 10.044 0 10.727C0 11.41 0.552421 11.9624 1.23541 11.9624H43.2997L35.9074 19.3347C35.4252 19.8168 35.4252 20.5902 35.9074 21.0723C36.1484 21.3134 36.4598 21.4339 36.7812 21.4339C37.1026 21.4339 37.414 21.3134 37.655 21.0723L47.1466 11.5807C47.6187 11.1087 47.6187 10.3252 47.1366 9.84313Z" fill="#EB6901"/>
</svg>
