<svg width="47" height="44" viewBox="0 0 47 44" fill="none" xmlns="http://www.w3.org/2000/svg">
<path d="M46.1311 37.2852L42.8301 9.47346C42.7594 8.85601 42.0638 8.38851 41.2503 8.38851H34.4598C34.3655 3.74881 29.2961 0 23.0714 0C16.8467 0 11.7774 3.74881 11.6831 8.38851H4.89251C4.06727 8.38851 3.3835 8.85601 3.31276 9.47346L0.0117895 37.2852C0.0117895 37.3205 0 37.3558 0 37.391C0 40.5577 3.87864 43.1333 8.65326 43.1333H37.4896C42.2642 43.1333 46.1429 40.5577 46.1429 37.391C46.1429 37.3558 46.1429 37.3205 46.1311 37.2852ZM23.0714 2.3816C27.5395 2.3816 31.1824 5.0631 31.2767 8.38851H14.8662C14.9605 5.0631 18.6033 2.3816 23.0714 2.3816ZM37.4896 40.7517H8.65326C5.65881 40.7517 3.23024 39.2699 3.18308 37.444L6.34258 10.7789H11.6713V14.3954C11.6713 15.057 12.3786 15.5862 13.2628 15.5862C14.147 15.5862 14.8544 15.057 14.8544 14.3954V10.7789H31.2767V14.3954C31.2767 15.057 31.9841 15.5862 32.8682 15.5862C33.7524 15.5862 34.4598 15.057 34.4598 14.3954V10.7789H39.7885L42.9598 37.444C42.9126 39.2699 40.4723 40.7517 37.4896 40.7517Z" fill="#EB791E"/>
<path d="M23.4564 16.9453C17.7226 16.9453 13.0742 21.6009 13.0742 27.3435C13.0742 33.0861 17.7226 37.7417 23.4564 37.7417C29.1901 37.7417 33.8385 33.0861 33.8385 27.3435C33.8327 21.6028 29.1882 16.9511 23.4564 16.9453ZM23.4564 31.7998C20.9999 31.7998 19.0069 29.8038 19.0069 27.3435C19.0069 24.8832 20.9999 22.8871 23.4564 22.8871C25.9129 22.8871 27.9059 24.8832 27.9059 27.3435C27.9039 29.8038 25.9129 31.7979 23.4564 31.7998Z" fill="#EB791E" fill-opacity="0.7"/>
</svg>
