<svg width="66" height="61" viewBox="0 0 66 61" fill="none" xmlns="http://www.w3.org/2000/svg">
<g clip-path="url(#clip0)">
<path d="M56.1076 55.2852L52.8067 27.4735C52.7359 26.856 52.0404 26.3885 51.2269 26.3885H44.4363C44.342 21.7488 39.2727 18 33.048 18C26.8233 18 21.754 21.7488 21.6596 26.3885H14.8691C14.0438 26.3885 13.3601 26.856 13.2893 27.4735L9.98835 55.2852C9.98835 55.3205 9.97656 55.3558 9.97656 55.391C9.97656 58.5577 13.8552 61.1333 18.6298 61.1333H47.4662C52.2408 61.1333 56.1194 58.5577 56.1194 55.391C56.1194 55.3558 56.1194 55.3205 56.1076 55.2852ZM33.048 20.3816C37.5161 20.3816 41.1589 23.0631 41.2533 26.3885H24.8427C24.937 23.0631 28.5799 20.3816 33.048 20.3816ZM47.4662 58.7517H18.6298C15.6354 58.7517 13.2068 57.2699 13.1596 55.444L16.3191 28.7789H21.6479V32.3954C21.6479 33.057 22.3552 33.5862 23.2394 33.5862C24.1236 33.5862 24.8309 33.057 24.8309 32.3954V28.7789H41.2533V32.3954C41.2533 33.057 41.9606 33.5862 42.8448 33.5862C43.729 33.5862 44.4363 33.057 44.4363 32.3954V28.7789H49.765L52.9363 55.444C52.8892 57.2699 50.4488 58.7517 47.4662 58.7517Z" fill="#E05117"/>
<path d="M33.4329 34.9453C27.6992 34.9453 23.0508 39.6009 23.0508 45.3435C23.0508 51.0861 27.6992 55.7417 33.4329 55.7417C39.1667 55.7417 43.8151 51.0861 43.8151 45.3435C43.8093 39.6028 39.1647 34.9511 33.4329 34.9453ZM33.4329 49.7999C30.9764 49.7999 28.9834 47.8038 28.9834 45.3435C28.9834 42.8832 30.9764 40.8871 33.4329 40.8871C35.8894 40.8871 37.8824 42.8832 37.8824 45.3435C37.8805 47.8038 35.8894 49.798 33.4329 49.7999Z" fill="#E05117" fill-opacity="0.7"/>
</g>
<defs>
<clipPath id="clip0">
<rect width="65.3155" height="61" fill="white"/>
</clipPath>
</defs>
</svg>
