<svg width="57" height="37" viewBox="0 0 57 37" fill="none" xmlns="http://www.w3.org/2000/svg">
<path d="M49.9308 13.7537H4.42836C1.9857 13.7537 0 15.915 0 18.5712V24.9856C0 25.0212 0.00394557 25.0547 0.00478251 25.0895C0.00394557 25.0987 0 25.1067 0 25.1158V31.5322C0 34.1888 1.98713 36.3489 4.42836 36.3489H49.9309C52.374 36.3489 54.3595 34.1873 54.3595 31.5322V25.1158C54.3595 25.1067 54.3556 25.1003 54.3556 25.0895C54.3556 25.0547 54.3595 25.0214 54.3595 24.9856V18.5712C54.3594 15.915 52.3734 13.7537 49.9308 13.7537ZM53.6896 31.5322C53.6896 33.7867 52.0009 35.6192 49.9308 35.6192H4.42836C2.35419 35.6192 0.670029 33.784 0.670029 31.5322V27.5227C1.45257 28.889 2.84189 29.8042 4.42836 29.8042H49.9309C51.518 29.8042 52.9085 28.889 53.6897 27.5227V31.5322H53.6896ZM53.6896 24.9856C53.6896 27.241 52.0009 29.0742 49.9308 29.0742H4.42836C2.35419 29.0742 0.670029 27.2388 0.670029 24.9856V18.5712C0.670029 16.316 2.35837 14.4825 4.42836 14.4825H49.9309C52.0049 14.4825 53.6897 16.3168 53.6897 18.5712V24.9856H53.6896Z" fill="#EB791E"/>
<path d="M49.9308 14H4.42836C1.9857 14 0 16.1614 0 18.8176V25.2319C0 25.2676 0.00394557 25.301 0.00478251 25.3358C0.00394557 25.3451 0 25.353 0 25.3621V31.7786C0 34.4352 1.98713 36.5952 4.42836 36.5952H49.9309C52.374 36.5952 54.3595 34.4336 54.3595 31.7786V25.3621C54.3595 25.353 54.3556 25.3466 54.3556 25.3358C54.3556 25.301 54.3595 25.2677 54.3595 25.2319V18.8176C54.3594 16.1614 52.3734 14 49.9308 14ZM53.6896 31.7786C53.6896 34.033 52.0009 35.8655 49.9308 35.8655H4.42836C2.35419 35.8655 0.670029 34.0303 0.670029 31.7786V27.769C1.45257 29.1354 2.84189 30.0505 4.42836 30.0505H49.9309C51.518 30.0505 52.9085 29.1354 53.6897 27.769V31.7786H53.6896ZM53.6896 25.2319C53.6896 27.4873 52.0009 29.3206 49.9308 29.3206H4.42836C2.35419 29.3206 0.670029 27.4851 0.670029 25.2319V18.8176C0.670029 16.5623 2.35837 14.7288 4.42836 14.7288H49.9309C52.0049 14.7288 53.6897 16.5631 53.6897 18.8176V25.2319H53.6896Z" fill="#EB791E"/>
<path d="M49.9308 14H4.42836C1.9857 14 0 16.1614 0 18.8176V25.2319C0 25.2676 0.00394557 25.301 0.00478251 25.3358C0.00394557 25.3451 0 25.353 0 25.3621V31.7786C0 34.4352 1.98713 36.5952 4.42836 36.5952H49.9309C52.374 36.5952 54.3595 34.4336 54.3595 31.7786V25.3621C54.3595 25.353 54.3556 25.3466 54.3556 25.3358C54.3556 25.301 54.3595 25.2677 54.3595 25.2319V18.8176C54.3594 16.1614 52.3734 14 49.9308 14ZM53.6896 31.7786C53.6896 34.033 52.0009 35.8655 49.9308 35.8655H4.42836C2.35419 35.8655 0.670029 34.0303 0.670029 31.7786V27.769C1.45257 29.1354 2.84189 30.0505 4.42836 30.0505H49.9309C51.518 30.0505 52.9085 29.1354 53.6897 27.769V31.7786H53.6896ZM53.6896 25.2319C53.6896 27.4873 52.0009 29.3206 49.9308 29.3206H4.42836C2.35419 29.3206 0.670029 27.4851 0.670029 25.2319V18.8176C0.670029 16.5623 2.35837 14.7288 4.42836 14.7288H49.9309C52.0049 14.7288 53.6897 16.5631 53.6897 18.8176V25.2319H53.6896Z" fill="#EB791E"/>
<path d="M49.9308 14.2463H4.42836C1.9857 14.2463 0 16.4077 0 19.0639V25.4783C0 25.5139 0.00394557 25.5473 0.00478251 25.5822C0.00394557 25.5914 0 25.5994 0 25.6085V32.0249C0 34.6815 1.98713 36.8416 4.42836 36.8416H49.9309C52.374 36.8416 54.3595 34.6799 54.3595 32.0249V25.6085C54.3595 25.5994 54.3556 25.593 54.3556 25.5822C54.3556 25.5473 54.3595 25.514 54.3595 25.4783V19.0639C54.3594 16.4077 52.3734 14.2463 49.9308 14.2463ZM53.6896 32.0249C53.6896 34.2794 52.0009 36.1118 49.9308 36.1118H4.42836C2.35419 36.1118 0.670029 34.2766 0.670029 32.0249V28.0154C1.45257 29.3817 2.84189 30.2969 4.42836 30.2969H49.9309C51.518 30.2969 52.9085 29.3817 53.6897 28.0154V32.0249H53.6896ZM53.6896 25.4783C53.6896 27.7337 52.0009 29.5669 49.9308 29.5669H4.42836C2.35419 29.5669 0.670029 27.7314 0.670029 25.4783V19.0639C0.670029 16.8087 2.35837 14.9752 4.42836 14.9752H49.9309C52.0049 14.9752 53.6897 16.8094 53.6897 19.0639V25.4783H53.6896Z" fill="#EB791E"/>
<path d="M49.9308 13H4.42836C1.9857 13 0 15.1614 0 17.8176V24.2319C0 24.2676 0.00394557 24.301 0.00478251 24.3358C0.00394557 24.3451 0 24.353 0 24.3621V30.7786C0 33.4352 1.98713 35.5952 4.42836 35.5952H49.9309C52.374 35.5952 54.3595 33.4336 54.3595 30.7786V24.3621C54.3595 24.353 54.3556 24.3466 54.3556 24.3358C54.3556 24.301 54.3595 24.2677 54.3595 24.2319V17.8176C54.3594 15.1614 52.3734 13 49.9308 13ZM53.6896 30.7786C53.6896 33.033 52.0009 34.8655 49.9308 34.8655H4.42836C2.35419 34.8655 0.670029 33.0303 0.670029 30.7786V26.769C1.45257 28.1354 2.84189 29.0505 4.42836 29.0505H49.9309C51.518 29.0505 52.9085 28.1354 53.6897 26.769V30.7786H53.6896ZM53.6896 24.2319C53.6896 26.4873 52.0009 28.3206 49.9308 28.3206H4.42836C2.35419 28.3206 0.670029 26.4851 0.670029 24.2319V17.8176C0.670029 15.5623 2.35837 13.7288 4.42836 13.7288H49.9309C52.0049 13.7288 53.6897 15.5631 53.6897 17.8176V24.2319H53.6896Z" fill="#EB791E"/>
<path d="M48.7057 32H8.29437C8.13254 32 8 32.3393 8 32.7503C8 33.1629 8.13254 33.5 8.29437 33.5H48.7057C48.8675 33.5 49 33.1629 49 32.7503C48.9999 32.335 48.8675 32 48.7057 32Z" fill="#EB791E"/>
<circle cx="48.4202" cy="8.57933" r="8.57933" fill="#E5E5E5"/>
<circle cx="48.4206" cy="8.57937" r="7.51431" fill="white"/>
<path d="M51.4774 10.0946L49.085 8.30027V4.64528C49.085 4.27777 48.7879 3.98071 48.4204 3.98071C48.0529 3.98071 47.7559 4.27777 47.7559 4.64528V8.63259C47.7559 8.84191 47.8542 9.0393 48.0217 9.16424L50.6799 11.1579C50.7995 11.2476 50.9391 11.2908 51.0779 11.2908C51.2806 11.2908 51.48 11.1998 51.6103 11.0243C51.8309 10.7312 51.7711 10.3145 51.4774 10.0946Z" fill="#EB791E"/>
<path d="M48.4202 0C43.6892 0 39.8408 3.8484 39.8408 8.57933C39.8408 13.3103 43.6892 17.1587 48.4202 17.1587C53.1511 17.1587 56.9995 13.3103 56.9995 8.57933C56.9995 3.8484 53.1511 0 48.4202 0ZM48.4202 15.8296C44.4229 15.8296 41.1699 12.5766 41.1699 8.57933C41.1699 4.58207 44.4229 1.32909 48.4202 1.32909C52.4181 1.32909 55.6704 4.58207 55.6704 8.57933C55.6704 12.5766 52.4174 15.8296 48.4202 15.8296Z" fill="#EB791E"/>
<path d="M51.4774 10.0946L49.085 8.30027V4.64528C49.085 4.27777 48.7879 3.98071 48.4204 3.98071C48.0529 3.98071 47.7559 4.27777 47.7559 4.64528V8.63259C47.7559 8.84191 47.8542 9.0393 48.0217 9.16424L50.6799 11.1579C50.7995 11.2476 50.9391 11.2908 51.0779 11.2908C51.2806 11.2908 51.48 11.1998 51.6103 11.0243C51.8309 10.7312 51.7711 10.3145 51.4774 10.0946Z" fill="#EB791E"/>
<path d="M48.4202 0C43.6892 0 39.8408 3.8484 39.8408 8.57933C39.8408 13.3103 43.6892 17.1587 48.4202 17.1587C53.1511 17.1587 56.9995 13.3103 56.9995 8.57933C56.9995 3.8484 53.1511 0 48.4202 0ZM48.4202 15.8296C44.4229 15.8296 41.1699 12.5766 41.1699 8.57933C41.1699 4.58207 44.4229 1.32909 48.4202 1.32909C52.4181 1.32909 55.6704 4.58207 55.6704 8.57933C55.6704 12.5766 52.4174 15.8296 48.4202 15.8296Z" fill="#EB791E"/>
<path d="M5.68115 25.9459H4.61768V20.8087L3.04883 21.3448V20.444L5.54492 19.5255H5.68115V25.9459Z" fill="#EB791E"/>
<path d="M13.2676 22.2589H13.918C14.2461 22.256 14.5054 22.171 14.6958 22.004C14.8892 21.837 14.9858 21.5953 14.9858 21.2789C14.9858 20.9742 14.9053 20.7384 14.7441 20.5714C14.5859 20.4015 14.3428 20.3165 14.0146 20.3165C13.7275 20.3165 13.4917 20.4 13.3071 20.567C13.1226 20.7311 13.0303 20.9464 13.0303 21.213H11.9624C11.9624 20.8849 12.0488 20.5861 12.2217 20.3165C12.3975 20.047 12.6406 19.8375 12.9512 19.6881C13.2646 19.5358 13.6147 19.4596 14.0015 19.4596C14.6401 19.4596 15.1411 19.6207 15.5044 19.943C15.8706 20.2623 16.0537 20.7076 16.0537 21.2789C16.0537 21.566 15.9614 21.837 15.7769 22.0919C15.5952 22.3439 15.3594 22.5343 15.0693 22.6632C15.4209 22.7833 15.6875 22.9723 15.8691 23.2301C16.0537 23.4879 16.146 23.7955 16.146 24.153C16.146 24.7272 15.9482 25.1842 15.5527 25.524C15.1602 25.8639 14.6431 26.0338 14.0015 26.0338C13.3862 26.0338 12.8823 25.8698 12.4897 25.5416C12.0972 25.2135 11.9009 24.777 11.9009 24.2321H12.9688C12.9688 24.5133 13.0625 24.7418 13.25 24.9176C13.4404 25.0934 13.6953 25.1813 14.0146 25.1813C14.3457 25.1813 14.6064 25.0934 14.7969 24.9176C14.9873 24.7418 15.0825 24.4869 15.0825 24.153C15.0825 23.816 14.9829 23.5568 14.7837 23.3751C14.5845 23.1935 14.2886 23.1027 13.896 23.1027H13.2676V22.2589Z" fill="#EB791E"/>
<path d="M21.5615 22.7731L21.9087 19.5475H25.3452V20.4703H22.7964L22.6206 21.9996C22.9165 21.8297 23.2505 21.7448 23.6226 21.7448C24.2319 21.7448 24.7051 21.9396 25.042 22.3292C25.3818 22.7189 25.5518 23.2433 25.5518 23.9025C25.5518 24.5529 25.3643 25.0714 24.9893 25.4581C24.6143 25.8419 24.1001 26.0338 23.4468 26.0338C22.8608 26.0338 22.3745 25.8683 21.9878 25.5372C21.604 25.2032 21.396 24.7638 21.3638 24.2189H22.3965C22.4375 24.5294 22.5488 24.7682 22.7305 24.9352C22.9121 25.0992 23.1494 25.1813 23.4424 25.1813C23.7705 25.1813 24.0254 25.0641 24.207 24.8297C24.3916 24.5953 24.4839 24.276 24.4839 23.8717C24.4839 23.4821 24.3828 23.1744 24.1807 22.9489C23.9785 22.7203 23.7002 22.6061 23.3457 22.6061C23.1523 22.6061 22.9883 22.6324 22.8535 22.6852C22.7188 22.735 22.5723 22.8346 22.4141 22.984L21.5615 22.7731Z" fill="#EB791E"/>
<path d="M21.5615 22.7731L21.9087 19.5475H25.3452V20.4703H22.7964L22.6206 21.9996C22.9165 21.8297 23.2505 21.7448 23.6226 21.7448C24.2319 21.7448 24.7051 21.9396 25.042 22.3292C25.3818 22.7189 25.5518 23.2433 25.5518 23.9025C25.5518 24.5529 25.3643 25.0714 24.9893 25.4581C24.6143 25.8419 24.1001 26.0338 23.4468 26.0338C22.8608 26.0338 22.3745 25.8683 21.9878 25.5372C21.604 25.2032 21.396 24.7638 21.3638 24.2189H22.3965C22.4375 24.5294 22.5488 24.7682 22.7305 24.9352C22.9121 25.0992 23.1494 25.1813 23.4424 25.1813C23.7705 25.1813 24.0254 25.0641 24.207 24.8297C24.3916 24.5953 24.4839 24.276 24.4839 23.8717C24.4839 23.4821 24.3828 23.1744 24.1807 22.9489C23.9785 22.7203 23.7002 22.6061 23.3457 22.6061C23.1523 22.6061 22.9883 22.6324 22.8535 22.6852C22.7188 22.735 22.5723 22.8346 22.4141 22.984L21.5615 22.7731Z" fill="#EB791E"/>
<path d="M34.7783 20.1407L32.2207 25.9459H31.1001L33.6533 20.4044H30.3442V19.5475H34.7783V20.1407Z" fill="#EB791E"/>
<path d="M42.791 23.2697C42.4336 23.6476 42.0161 23.8365 41.5386 23.8365C40.9761 23.8365 40.5278 23.6403 40.1938 23.2477C39.8599 22.8522 39.6929 22.3336 39.6929 21.692C39.6929 21.2701 39.7778 20.8878 39.9478 20.545C40.1177 20.2023 40.3594 19.9357 40.6729 19.7452C40.9863 19.5548 41.3496 19.4596 41.7627 19.4596C42.4072 19.4596 42.9185 19.6998 43.2964 20.1803C43.6743 20.6608 43.8633 21.3038 43.8633 22.1095V22.4083C43.8633 23.5626 43.6025 24.443 43.0811 25.0494C42.5596 25.6559 41.7817 25.9635 40.7476 25.9723H40.6201V25.089H40.7739C41.4038 25.0802 41.8872 24.9293 42.2241 24.6364C42.561 24.3405 42.75 23.8849 42.791 23.2697ZM41.7627 23.0016C41.9766 23.0016 42.1772 22.9401 42.3647 22.817C42.5522 22.694 42.6973 22.524 42.7998 22.3073V21.8898C42.7998 21.4181 42.7031 21.0387 42.5098 20.7516C42.3164 20.4645 42.0659 20.3209 41.7583 20.3209C41.4507 20.3209 41.2046 20.4484 41.02 20.7032C40.8384 20.9552 40.7476 21.2745 40.7476 21.6613C40.7476 22.0626 40.8398 22.3864 41.0244 22.6324C41.209 22.8785 41.4551 23.0016 41.7627 23.0016Z" fill="#EB791E"/>
<path d="M53.1768 23.2521C53.1768 24.172 53.0039 24.8663 52.6582 25.3351C52.3154 25.8009 51.7925 26.0338 51.0894 26.0338C50.3979 26.0338 49.8765 25.8068 49.5249 25.3527C49.1763 24.8956 48.9976 24.2203 48.9888 23.3268V22.2194C48.9888 21.2994 49.1602 20.6095 49.5029 20.1495C49.8486 19.6896 50.3745 19.4596 51.0806 19.4596C51.7808 19.4596 52.3022 19.6837 52.645 20.132C52.9907 20.5802 53.168 21.2511 53.1768 22.1447V23.2521ZM52.1089 22.0568C52.1089 21.4562 52.0269 21.0167 51.8628 20.7384C51.6987 20.4572 51.438 20.3165 51.0806 20.3165C50.7319 20.3165 50.4756 20.4498 50.3115 20.7164C50.1475 20.9801 50.061 21.3932 50.0522 21.9557V23.4059C50.0522 24.0035 50.1357 24.4489 50.3027 24.7418C50.4697 25.0348 50.7319 25.1813 51.0894 25.1813C51.4321 25.1813 51.6855 25.0465 51.8496 24.777C52.0137 24.5045 52.1001 24.0797 52.1089 23.5026V22.0568Z" fill="#EB791E"/>
</svg>
